<?xml version="1.0" standalone="no"?>
<!DOCTYPE svg PUBLIC "-//W3C//DTD SVG 1.1//EN" "http://www.w3.org/Graphics/SVG/1.1/DTD/svg11.dtd">
<svg version = "1.1" viewBox = "-0.0439591 -233.831 810.108 935.374" xmlns = "http://www.w3.org/2000/svg" >
<polyline points = "0,0 30,0 45.0008,-25.9803 60.0016,-1.62778e-07 90.0016,-1.62778e-07 105.002,-25.9803 90.004,-51.962 120.004,-51.962 135.005,-77.9423 150.006,-51.962 180.006,-51.962 165.007,-25.9803 180.008,1.74457e-06 210.008,1.74457e-06 225.009,-25.9803 240.01,1.74457e-06 270.01,1.74457e-06 285.01,-25.9803 270.012,-51.962 300.012,-51.962 315.013,-77.9423 300.014,-103.924 270.014,-103.927 285.015,-129.907 270.017,-155.889 300.017,-155.889 315.018,-181.869 330.018,-155.889 360.018,-155.889 375.019,-181.869 360.021,-207.851 390.021,-207.851 405.022,-233.831 420.022,-207.851 450.022,-207.851 435.024,-181.869 450.025,-155.889 480.025,-155.889 495.026,-181.869 510.026,-155.889 540.026,-155.889 525.028,-129.907 540.029,-103.927 510.029,-103.924 495.03,-77.9423 510.031,-51.962 540.031,-51.962 525.033,-25.9803 540.034,9.37396e-06 570.034,9.37396e-06 585.034,-25.9803 600.035,9.37396e-06 630.035,9.37396e-06 645.036,-25.9803 630.038,-51.962 660.038,-51.962 675.038,-77.9423 690.039,-51.962 720.039,-51.962 705.041,-25.9803 720.042,9.37396e-06 750.042,9.37396e-06 765.042,-25.9803 780.043,9.37396e-06 810.043,9.37396e-06 795.045,25.9817 810.046,51.962 780.046,51.9648 765.047,77.9465 780.048,103.927 810.048,103.927 795.049,129.908 810.05,155.889 780.05,155.892 765.052,181.873 750.049,155.894 720.049,155.897 705.05,181.879 720.051,207.859 690.051,207.862 675.053,233.844 690.053,259.824 720.053,259.824 705.055,285.806 720.056,311.786 750.056,311.786 765.057,285.806 780.057,311.786 810.057,311.786 795.059,337.767 810.06,363.748 780.06,363.751 765.061,389.732 780.062,415.713 810.062,415.713 795.064,441.694 810.065,467.674 780.065,467.677 765.066,493.659 750.063,467.68 720.063,467.683 705.064,493.665 720.065,519.645 690.065,519.648 675.067,545.629 660.064,519.65 630.064,519.653 645.06,493.67 630.056,467.691 600.056,467.694 585.058,493.676 570.055,467.697 540.055,467.7 525.056,493.681 540.057,519.662 510.057,519.664 495.059,545.646 510.059,571.626 540.059,571.626 525.061,597.608 540.062,623.588 510.062,623.591 495.063,649.573 480.06,623.594 450.06,623.597 435.062,649.578 450.063,675.559 420.063,675.562 405.064,701.543 390.061,675.564 360.061,675.567 375.057,649.584 360.054,623.605 330.054,623.608 315.055,649.59 300.052,623.611 270.052,623.614 285.048,597.63 270.045,571.652 300.045,571.646 315.041,545.663 300.038,519.684 270.038,519.687 285.034,493.704 270.031,467.725 240.031,467.728 225.032,493.709 210.029,467.73 180.029,467.733 165.031,493.715 180.031,519.695 150.031,519.698 135.033,545.68 120.03,519.701 90.0299,519.704 105.026,493.721 90.0226,467.742 60.0226,467.744 45.0243,493.726 30.021,467.747 0.0210401,467.75 15.017,441.767 0.0138184,415.788 30.0138,415.782 45.0098,389.799 30.0066,363.82 0.00659765,363.823 15.0026,337.84 -0.000624089,311.861 29.9994,311.856 44.9954,285.872 60.001,311.85 90.001,311.844 104.997,285.861 89.9938,259.882 119.994,259.877 134.99,233.894 119.987,207.915 89.9865,207.918 104.983,181.935 89.9793,155.956 59.9793,155.958 44.9809,181.94 29.9777,155.961 -0.0222949,155.964 14.9737,129.981 -0.0295166,104.002 29.9705,103.996 44.9665,78.0134 29.9633,52.0345 -0.0367373,52.0373 14.9593,26.0542 -0.0439591,0.0752751 " style = "stroke-width: 3.000000; stroke: rgb(255,0,0); fill:none;" >
</polyline>
</svg>
