<?xml version="1.0" standalone="no"?>
<!DOCTYPE svg PUBLIC "-//W3C//DTD SVG 1.1//EN" "http://www.w3.org/Graphics/SVG/1.1/DTD/svg11.dtd">
<svg version = "1.1" viewBox = "-293.194 -813.766 586.388 813.766" xmlns = "http://www.w3.org/2000/svg" >
<polyline points = "0,0 4.28626e-15,-70 29.5833,-133.442 " style = "stroke-width: 1.000000; stroke: rgb(255,0,0); fill:none;" >
</polyline>
<polyline points = "0,0 4.28626e-15,-70 29.5833,-133.442 4.28626e-15,-70 -29.5833,-133.442 " style = "stroke-width: 1.000000; stroke: rgb(255,0,0); fill:none;" >
</polyline>
<polyline points = "0,0 4.28626e-15,-70 29.5833,-133.442 4.28626e-15,-70 -29.5833,-133.442 4.28626e-15,-70 8.57253e-15,-140 1.28588e-14,-210 29.5833,-273.442 59.1666,-336.883 112.79,-381.878 " style = "stroke-width: 1.000000; stroke: rgb(255,0,0); fill:none;" >
</polyline>
<polyline points = "0,0 4.28626e-15,-70 29.5833,-133.442 4.28626e-15,-70 -29.5833,-133.442 4.28626e-15,-70 8.57253e-15,-140 1.28588e-14,-210 29.5833,-273.442 59.1666,-336.883 112.79,-381.878 59.1666,-336.883 59.1666,-406.883 " style = "stroke-width: 1.000000; stroke: rgb(255,0,0); fill:none;" >
</polyline>
<polyline points = "0,0 4.28626e-15,-70 29.5833,-133.442 4.28626e-15,-70 -29.5833,-133.442 4.28626e-15,-70 8.57253e-15,-140 1.28588e-14,-210 29.5833,-273.442 59.1666,-336.883 112.79,-381.878 59.1666,-336.883 59.1666,-406.883 59.1666,-336.883 88.7498,-400.325 " style = "stroke-width: 1.000000; stroke: rgb(255,0,0); fill:none;" >
</polyline>
<polyline points = "0,0 4.28626e-15,-70 29.5833,-133.442 4.28626e-15,-70 -29.5833,-133.442 4.28626e-15,-70 8.57253e-15,-140 1.28588e-14,-210 29.5833,-273.442 59.1666,-336.883 112.79,-381.878 59.1666,-336.883 59.1666,-406.883 59.1666,-336.883 88.7498,-400.325 1.28588e-14,-210 -29.5833,-273.442 -59.1666,-336.883 -59.1666,-406.883 " style = "stroke-width: 1.000000; stroke: rgb(255,0,0); fill:none;" >
</polyline>
<polyline points = "0,0 4.28626e-15,-70 29.5833,-133.442 4.28626e-15,-70 -29.5833,-133.442 4.28626e-15,-70 8.57253e-15,-140 1.28588e-14,-210 29.5833,-273.442 59.1666,-336.883 112.79,-381.878 59.1666,-336.883 59.1666,-406.883 59.1666,-336.883 88.7498,-400.325 1.28588e-14,-210 -29.5833,-273.442 -59.1666,-336.883 -59.1666,-406.883 -59.1666,-336.883 -112.79,-381.878 " style = "stroke-width: 1.000000; stroke: rgb(255,0,0); fill:none;" >
</polyline>
<polyline points = "0,0 4.28626e-15,-70 29.5833,-133.442 4.28626e-15,-70 -29.5833,-133.442 4.28626e-15,-70 8.57253e-15,-140 1.28588e-14,-210 29.5833,-273.442 59.1666,-336.883 112.79,-381.878 59.1666,-336.883 59.1666,-406.883 59.1666,-336.883 88.7498,-400.325 1.28588e-14,-210 -29.5833,-273.442 -59.1666,-336.883 -59.1666,-406.883 -59.1666,-336.883 -112.79,-381.878 -59.1666,-336.883 -88.7498,-400.325 " style = "stroke-width: 1.000000; stroke: rgb(255,0,0); fill:none;" >
</polyline>
<polyline points = "0,0 4.28626e-15,-70 29.5833,-133.442 4.28626e-15,-70 -29.5833,-133.442 4.28626e-15,-70 8.57253e-15,-140 1.28588e-14,-210 29.5833,-273.442 59.1666,-336.883 112.79,-381.878 59.1666,-336.883 59.1666,-406.883 59.1666,-336.883 88.7498,-400.325 1.28588e-14,-210 -29.5833,-273.442 -59.1666,-336.883 -59.1666,-406.883 -59.1666,-336.883 -112.79,-381.878 -59.1666,-336.883 -88.7498,-400.325 1.28588e-14,-210 1.71451e-14,-280 2.14313e-14,-350 29.5833,-413.442 59.1666,-476.883 112.79,-521.878 " style = "stroke-width: 1.000000; stroke: rgb(255,0,0); fill:none;" >
</polyline>
<polyline points = "0,0 4.28626e-15,-70 29.5833,-133.442 4.28626e-15,-70 -29.5833,-133.442 4.28626e-15,-70 8.57253e-15,-140 1.28588e-14,-210 29.5833,-273.442 59.1666,-336.883 112.79,-381.878 59.1666,-336.883 59.1666,-406.883 59.1666,-336.883 88.7498,-400.325 1.28588e-14,-210 -29.5833,-273.442 -59.1666,-336.883 -59.1666,-406.883 -59.1666,-336.883 -112.79,-381.878 -59.1666,-336.883 -88.7498,-400.325 1.28588e-14,-210 1.71451e-14,-280 2.14313e-14,-350 29.5833,-413.442 59.1666,-476.883 112.79,-521.878 59.1666,-476.883 59.1666,-546.883 " style = "stroke-width: 1.000000; stroke: rgb(255,0,0); fill:none;" >
</polyline>
<polyline points = "0,0 4.28626e-15,-70 29.5833,-133.442 4.28626e-15,-70 -29.5833,-133.442 4.28626e-15,-70 8.57253e-15,-140 1.28588e-14,-210 29.5833,-273.442 59.1666,-336.883 112.79,-381.878 59.1666,-336.883 59.1666,-406.883 59.1666,-336.883 88.7498,-400.325 1.28588e-14,-210 -29.5833,-273.442 -59.1666,-336.883 -59.1666,-406.883 -59.1666,-336.883 -112.79,-381.878 -59.1666,-336.883 -88.7498,-400.325 1.28588e-14,-210 1.71451e-14,-280 2.14313e-14,-350 29.5833,-413.442 59.1666,-476.883 112.79,-521.878 59.1666,-476.883 59.1666,-546.883 59.1666,-476.883 88.7498,-540.325 118.333,-603.766 171.956,-648.761 225.579,-693.756 293.194,-711.874 " style = "stroke-width: 1.000000; stroke: rgb(255,0,0); fill:none;" >
</polyline>
<polyline points = "0,0 4.28626e-15,-70 29.5833,-133.442 4.28626e-15,-70 -29.5833,-133.442 4.28626e-15,-70 8.57253e-15,-140 1.28588e-14,-210 29.5833,-273.442 59.1666,-336.883 112.79,-381.878 59.1666,-336.883 59.1666,-406.883 59.1666,-336.883 88.7498,-400.325 1.28588e-14,-210 -29.5833,-273.442 -59.1666,-336.883 -59.1666,-406.883 -59.1666,-336.883 -112.79,-381.878 -59.1666,-336.883 -88.7498,-400.325 1.28588e-14,-210 1.71451e-14,-280 2.14313e-14,-350 29.5833,-413.442 59.1666,-476.883 112.79,-521.878 59.1666,-476.883 59.1666,-546.883 59.1666,-476.883 88.7498,-540.325 118.333,-603.766 171.956,-648.761 225.579,-693.756 293.194,-711.874 225.579,-693.756 255.163,-757.198 " style = "stroke-width: 1.000000; stroke: rgb(255,0,0); fill:none;" >
</polyline>
<polyline points = "0,0 4.28626e-15,-70 29.5833,-133.442 4.28626e-15,-70 -29.5833,-133.442 4.28626e-15,-70 8.57253e-15,-140 1.28588e-14,-210 29.5833,-273.442 59.1666,-336.883 112.79,-381.878 59.1666,-336.883 59.1666,-406.883 59.1666,-336.883 88.7498,-400.325 1.28588e-14,-210 -29.5833,-273.442 -59.1666,-336.883 -59.1666,-406.883 -59.1666,-336.883 -112.79,-381.878 -59.1666,-336.883 -88.7498,-400.325 1.28588e-14,-210 1.71451e-14,-280 2.14313e-14,-350 29.5833,-413.442 59.1666,-476.883 112.79,-521.878 59.1666,-476.883 59.1666,-546.883 59.1666,-476.883 88.7498,-540.325 118.333,-603.766 171.956,-648.761 225.579,-693.756 293.194,-711.874 225.579,-693.756 255.163,-757.198 225.579,-693.756 279.202,-738.752 " style = "stroke-width: 1.000000; stroke: rgb(255,0,0); fill:none;" >
</polyline>
<polyline points = "0,0 4.28626e-15,-70 29.5833,-133.442 4.28626e-15,-70 -29.5833,-133.442 4.28626e-15,-70 8.57253e-15,-140 1.28588e-14,-210 29.5833,-273.442 59.1666,-336.883 112.79,-381.878 59.1666,-336.883 59.1666,-406.883 59.1666,-336.883 88.7498,-400.325 1.28588e-14,-210 -29.5833,-273.442 -59.1666,-336.883 -59.1666,-406.883 -59.1666,-336.883 -112.79,-381.878 -59.1666,-336.883 -88.7498,-400.325 1.28588e-14,-210 1.71451e-14,-280 2.14313e-14,-350 29.5833,-413.442 59.1666,-476.883 112.79,-521.878 59.1666,-476.883 59.1666,-546.883 59.1666,-476.883 88.7498,-540.325 118.333,-603.766 171.956,-648.761 225.579,-693.756 293.194,-711.874 225.579,-693.756 255.163,-757.198 225.579,-693.756 279.202,-738.752 118.333,-603.766 118.333,-673.766 118.333,-743.766 147.916,-807.208 " style = "stroke-width: 1.000000; stroke: rgb(255,0,0); fill:none;" >
</polyline>
<polyline points = "0,0 4.28626e-15,-70 29.5833,-133.442 4.28626e-15,-70 -29.5833,-133.442 4.28626e-15,-70 8.57253e-15,-140 1.28588e-14,-210 29.5833,-273.442 59.1666,-336.883 112.79,-381.878 59.1666,-336.883 59.1666,-406.883 59.1666,-336.883 88.7498,-400.325 1.28588e-14,-210 -29.5833,-273.442 -59.1666,-336.883 -59.1666,-406.883 -59.1666,-336.883 -112.79,-381.878 -59.1666,-336.883 -88.7498,-400.325 1.28588e-14,-210 1.71451e-14,-280 2.14313e-14,-350 29.5833,-413.442 59.1666,-476.883 112.79,-521.878 59.1666,-476.883 59.1666,-546.883 59.1666,-476.883 88.7498,-540.325 118.333,-603.766 171.956,-648.761 225.579,-693.756 293.194,-711.874 225.579,-693.756 255.163,-757.198 225.579,-693.756 279.202,-738.752 118.333,-603.766 118.333,-673.766 118.333,-743.766 147.916,-807.208 118.333,-743.766 88.7498,-807.208 " style = "stroke-width: 1.000000; stroke: rgb(255,0,0); fill:none;" >
</polyline>
<polyline points = "0,0 4.28626e-15,-70 29.5833,-133.442 4.28626e-15,-70 -29.5833,-133.442 4.28626e-15,-70 8.57253e-15,-140 1.28588e-14,-210 29.5833,-273.442 59.1666,-336.883 112.79,-381.878 59.1666,-336.883 59.1666,-406.883 59.1666,-336.883 88.7498,-400.325 1.28588e-14,-210 -29.5833,-273.442 -59.1666,-336.883 -59.1666,-406.883 -59.1666,-336.883 -112.79,-381.878 -59.1666,-336.883 -88.7498,-400.325 1.28588e-14,-210 1.71451e-14,-280 2.14313e-14,-350 29.5833,-413.442 59.1666,-476.883 112.79,-521.878 59.1666,-476.883 59.1666,-546.883 59.1666,-476.883 88.7498,-540.325 118.333,-603.766 171.956,-648.761 225.579,-693.756 293.194,-711.874 225.579,-693.756 255.163,-757.198 225.579,-693.756 279.202,-738.752 118.333,-603.766 118.333,-673.766 118.333,-743.766 147.916,-807.208 118.333,-743.766 88.7498,-807.208 118.333,-743.766 118.333,-813.766 " style = "stroke-width: 1.000000; stroke: rgb(255,0,0); fill:none;" >
</polyline>
<polyline points = "0,0 4.28626e-15,-70 29.5833,-133.442 4.28626e-15,-70 -29.5833,-133.442 4.28626e-15,-70 8.57253e-15,-140 1.28588e-14,-210 29.5833,-273.442 59.1666,-336.883 112.79,-381.878 59.1666,-336.883 59.1666,-406.883 59.1666,-336.883 88.7498,-400.325 1.28588e-14,-210 -29.5833,-273.442 -59.1666,-336.883 -59.1666,-406.883 -59.1666,-336.883 -112.79,-381.878 -59.1666,-336.883 -88.7498,-400.325 1.28588e-14,-210 1.71451e-14,-280 2.14313e-14,-350 29.5833,-413.442 59.1666,-476.883 112.79,-521.878 59.1666,-476.883 59.1666,-546.883 59.1666,-476.883 88.7498,-540.325 118.333,-603.766 171.956,-648.761 225.579,-693.756 293.194,-711.874 225.579,-693.756 255.163,-757.198 225.579,-693.756 279.202,-738.752 118.333,-603.766 118.333,-673.766 118.333,-743.766 147.916,-807.208 118.333,-743.766 88.7498,-807.208 118.333,-743.766 118.333,-813.766 118.333,-603.766 147.916,-667.208 " style = "stroke-width: 1.000000; stroke: rgb(255,0,0); fill:none;" >
</polyline>
<polyline points = "0,0 4.28626e-15,-70 29.5833,-133.442 4.28626e-15,-70 -29.5833,-133.442 4.28626e-15,-70 8.57253e-15,-140 1.28588e-14,-210 29.5833,-273.442 59.1666,-336.883 112.79,-381.878 59.1666,-336.883 59.1666,-406.883 59.1666,-336.883 88.7498,-400.325 1.28588e-14,-210 -29.5833,-273.442 -59.1666,-336.883 -59.1666,-406.883 -59.1666,-336.883 -112.79,-381.878 -59.1666,-336.883 -88.7498,-400.325 1.28588e-14,-210 1.71451e-14,-280 2.14313e-14,-350 29.5833,-413.442 59.1666,-476.883 112.79,-521.878 59.1666,-476.883 59.1666,-546.883 59.1666,-476.883 88.7498,-540.325 118.333,-603.766 171.956,-648.761 225.579,-693.756 293.194,-711.874 225.579,-693.756 255.163,-757.198 225.579,-693.756 279.202,-738.752 118.333,-603.766 118.333,-673.766 118.333,-743.766 147.916,-807.208 118.333,-743.766 88.7498,-807.208 118.333,-743.766 118.333,-813.766 118.333,-603.766 147.916,-667.208 2.14313e-14,-350 -29.5833,-413.442 -59.1666,-476.883 -59.1666,-546.883 " style = "stroke-width: 1.000000; stroke: rgb(255,0,0); fill:none;" >
</polyline>
<polyline points = "0,0 4.28626e-15,-70 29.5833,-133.442 4.28626e-15,-70 -29.5833,-133.442 4.28626e-15,-70 8.57253e-15,-140 1.28588e-14,-210 29.5833,-273.442 59.1666,-336.883 112.79,-381.878 59.1666,-336.883 59.1666,-406.883 59.1666,-336.883 88.7498,-400.325 1.28588e-14,-210 -29.5833,-273.442 -59.1666,-336.883 -59.1666,-406.883 -59.1666,-336.883 -112.79,-381.878 -59.1666,-336.883 -88.7498,-400.325 1.28588e-14,-210 1.71451e-14,-280 2.14313e-14,-350 29.5833,-413.442 59.1666,-476.883 112.79,-521.878 59.1666,-476.883 59.1666,-546.883 59.1666,-476.883 88.7498,-540.325 118.333,-603.766 171.956,-648.761 225.579,-693.756 293.194,-711.874 225.579,-693.756 255.163,-757.198 225.579,-693.756 279.202,-738.752 118.333,-603.766 118.333,-673.766 118.333,-743.766 147.916,-807.208 118.333,-743.766 88.7498,-807.208 118.333,-743.766 118.333,-813.766 118.333,-603.766 147.916,-667.208 2.14313e-14,-350 -29.5833,-413.442 -59.1666,-476.883 -59.1666,-546.883 -59.1666,-476.883 -112.79,-521.878 " style = "stroke-width: 1.000000; stroke: rgb(255,0,0); fill:none;" >
</polyline>
<polyline points = "0,0 4.28626e-15,-70 29.5833,-133.442 4.28626e-15,-70 -29.5833,-133.442 4.28626e-15,-70 8.57253e-15,-140 1.28588e-14,-210 29.5833,-273.442 59.1666,-336.883 112.79,-381.878 59.1666,-336.883 59.1666,-406.883 59.1666,-336.883 88.7498,-400.325 1.28588e-14,-210 -29.5833,-273.442 -59.1666,-336.883 -59.1666,-406.883 -59.1666,-336.883 -112.79,-381.878 -59.1666,-336.883 -88.7498,-400.325 1.28588e-14,-210 1.71451e-14,-280 2.14313e-14,-350 29.5833,-413.442 59.1666,-476.883 112.79,-521.878 59.1666,-476.883 59.1666,-546.883 59.1666,-476.883 88.7498,-540.325 118.333,-603.766 171.956,-648.761 225.579,-693.756 293.194,-711.874 225.579,-693.756 255.163,-757.198 225.579,-693.756 279.202,-738.752 118.333,-603.766 118.333,-673.766 118.333,-743.766 147.916,-807.208 118.333,-743.766 88.7498,-807.208 118.333,-743.766 118.333,-813.766 118.333,-603.766 147.916,-667.208 2.14313e-14,-350 -29.5833,-413.442 -59.1666,-476.883 -59.1666,-546.883 -59.1666,-476.883 -112.79,-521.878 -59.1666,-476.883 -88.7498,-540.325 -118.333,-603.766 -118.333,-673.766 -118.333,-743.766 -88.7498,-807.208 " style = "stroke-width: 1.000000; stroke: rgb(255,0,0); fill:none;" >
</polyline>
<polyline points = "0,0 4.28626e-15,-70 29.5833,-133.442 4.28626e-15,-70 -29.5833,-133.442 4.28626e-15,-70 8.57253e-15,-140 1.28588e-14,-210 29.5833,-273.442 59.1666,-336.883 112.79,-381.878 59.1666,-336.883 59.1666,-406.883 59.1666,-336.883 88.7498,-400.325 1.28588e-14,-210 -29.5833,-273.442 -59.1666,-336.883 -59.1666,-406.883 -59.1666,-336.883 -112.79,-381.878 -59.1666,-336.883 -88.7498,-400.325 1.28588e-14,-210 1.71451e-14,-280 2.14313e-14,-350 29.5833,-413.442 59.1666,-476.883 112.79,-521.878 59.1666,-476.883 59.1666,-546.883 59.1666,-476.883 88.7498,-540.325 118.333,-603.766 171.956,-648.761 225.579,-693.756 293.194,-711.874 225.579,-693.756 255.163,-757.198 225.579,-693.756 279.202,-738.752 118.333,-603.766 118.333,-673.766 118.333,-743.766 147.916,-807.208 118.333,-743.766 88.7498,-807.208 118.333,-743.766 118.333,-813.766 118.333,-603.766 147.916,-667.208 2.14313e-14,-350 -29.5833,-413.442 -59.1666,-476.883 -59.1666,-546.883 -59.1666,-476.883 -112.79,-521.878 -59.1666,-476.883 -88.7498,-540.325 -118.333,-603.766 -118.333,-673.766 -118.333,-743.766 -88.7498,-807.208 -118.333,-743.766 -147.916,-807.208 " style = "stroke-width: 1.000000; stroke: rgb(255,0,0); fill:none;" >
</polyline>
<polyline points = "0,0 4.28626e-15,-70 29.5833,-133.442 4.28626e-15,-70 -29.5833,-133.442 4.28626e-15,-70 8.57253e-15,-140 1.28588e-14,-210 29.5833,-273.442 59.1666,-336.883 112.79,-381.878 59.1666,-336.883 59.1666,-406.883 59.1666,-336.883 88.7498,-400.325 1.28588e-14,-210 -29.5833,-273.442 -59.1666,-336.883 -59.1666,-406.883 -59.1666,-336.883 -112.79,-381.878 -59.1666,-336.883 -88.7498,-400.325 1.28588e-14,-210 1.71451e-14,-280 2.14313e-14,-350 29.5833,-413.442 59.1666,-476.883 112.79,-521.878 59.1666,-476.883 59.1666,-546.883 59.1666,-476.883 88.7498,-540.325 118.333,-603.766 171.956,-648.761 225.579,-693.756 293.194,-711.874 225.579,-693.756 255.163,-757.198 225.579,-693.756 279.202,-738.752 118.333,-603.766 118.333,-673.766 118.333,-743.766 147.916,-807.208 118.333,-743.766 88.7498,-807.208 118.333,-743.766 118.333,-813.766 118.333,-603.766 147.916,-667.208 2.14313e-14,-350 -29.5833,-413.442 -59.1666,-476.883 -59.1666,-546.883 -59.1666,-476.883 -112.79,-521.878 -59.1666,-476.883 -88.7498,-540.325 -118.333,-603.766 -118.333,-673.766 -118.333,-743.766 -88.7498,-807.208 -118.333,-743.766 -147.916,-807.208 -118.333,-743.766 -118.333,-813.766 " style = "stroke-width: 1.000000; stroke: rgb(255,0,0); fill:none;" >
</polyline>
<polyline points = "0,0 4.28626e-15,-70 29.5833,-133.442 4.28626e-15,-70 -29.5833,-133.442 4.28626e-15,-70 8.57253e-15,-140 1.28588e-14,-210 29.5833,-273.442 59.1666,-336.883 112.79,-381.878 59.1666,-336.883 59.1666,-406.883 59.1666,-336.883 88.7498,-400.325 1.28588e-14,-210 -29.5833,-273.442 -59.1666,-336.883 -59.1666,-406.883 -59.1666,-336.883 -112.79,-381.878 -59.1666,-336.883 -88.7498,-400.325 1.28588e-14,-210 1.71451e-14,-280 2.14313e-14,-350 29.5833,-413.442 59.1666,-476.883 112.79,-521.878 59.1666,-476.883 59.1666,-546.883 59.1666,-476.883 88.7498,-540.325 118.333,-603.766 171.956,-648.761 225.579,-693.756 293.194,-711.874 225.579,-693.756 255.163,-757.198 225.579,-693.756 279.202,-738.752 118.333,-603.766 118.333,-673.766 118.333,-743.766 147.916,-807.208 118.333,-743.766 88.7498,-807.208 118.333,-743.766 118.333,-813.766 118.333,-603.766 147.916,-667.208 2.14313e-14,-350 -29.5833,-413.442 -59.1666,-476.883 -59.1666,-546.883 -59.1666,-476.883 -112.79,-521.878 -59.1666,-476.883 -88.7498,-540.325 -118.333,-603.766 -118.333,-673.766 -118.333,-743.766 -88.7498,-807.208 -118.333,-743.766 -147.916,-807.208 -118.333,-743.766 -118.333,-813.766 -118.333,-603.766 -171.956,-648.761 -225.579,-693.756 -255.163,-757.198 " style = "stroke-width: 1.000000; stroke: rgb(255,0,0); fill:none;" >
</polyline>
<polyline points = "0,0 4.28626e-15,-70 29.5833,-133.442 4.28626e-15,-70 -29.5833,-133.442 4.28626e-15,-70 8.57253e-15,-140 1.28588e-14,-210 29.5833,-273.442 59.1666,-336.883 112.79,-381.878 59.1666,-336.883 59.1666,-406.883 59.1666,-336.883 88.7498,-400.325 1.28588e-14,-210 -29.5833,-273.442 -59.1666,-336.883 -59.1666,-406.883 -59.1666,-336.883 -112.79,-381.878 -59.1666,-336.883 -88.7498,-400.325 1.28588e-14,-210 1.71451e-14,-280 2.14313e-14,-350 29.5833,-413.442 59.1666,-476.883 112.79,-521.878 59.1666,-476.883 59.1666,-546.883 59.1666,-476.883 88.7498,-540.325 118.333,-603.766 171.956,-648.761 225.579,-693.756 293.194,-711.874 225.579,-693.756 255.163,-757.198 225.579,-693.756 279.202,-738.752 118.333,-603.766 118.333,-673.766 118.333,-743.766 147.916,-807.208 118.333,-743.766 88.7498,-807.208 118.333,-743.766 118.333,-813.766 118.333,-603.766 147.916,-667.208 2.14313e-14,-350 -29.5833,-413.442 -59.1666,-476.883 -59.1666,-546.883 -59.1666,-476.883 -112.79,-521.878 -59.1666,-476.883 -88.7498,-540.325 -118.333,-603.766 -118.333,-673.766 -118.333,-743.766 -88.7498,-807.208 -118.333,-743.766 -147.916,-807.208 -118.333,-743.766 -118.333,-813.766 -118.333,-603.766 -171.956,-648.761 -225.579,-693.756 -255.163,-757.198 -225.579,-693.756 -293.194,-711.874 " style = "stroke-width: 1.000000; stroke: rgb(255,0,0); fill:none;" >
</polyline>
<polyline points = "0,0 4.28626e-15,-70 29.5833,-133.442 4.28626e-15,-70 -29.5833,-133.442 4.28626e-15,-70 8.57253e-15,-140 1.28588e-14,-210 29.5833,-273.442 59.1666,-336.883 112.79,-381.878 59.1666,-336.883 59.1666,-406.883 59.1666,-336.883 88.7498,-400.325 1.28588e-14,-210 -29.5833,-273.442 -59.1666,-336.883 -59.1666,-406.883 -59.1666,-336.883 -112.79,-381.878 -59.1666,-336.883 -88.7498,-400.325 1.28588e-14,-210 1.71451e-14,-280 2.14313e-14,-350 29.5833,-413.442 59.1666,-476.883 112.79,-521.878 59.1666,-476.883 59.1666,-546.883 59.1666,-476.883 88.7498,-540.325 118.333,-603.766 171.956,-648.761 225.579,-693.756 293.194,-711.874 225.579,-693.756 255.163,-757.198 225.579,-693.756 279.202,-738.752 118.333,-603.766 118.333,-673.766 118.333,-743.766 147.916,-807.208 118.333,-743.766 88.7498,-807.208 118.333,-743.766 118.333,-813.766 118.333,-603.766 147.916,-667.208 2.14313e-14,-350 -29.5833,-413.442 -59.1666,-476.883 -59.1666,-546.883 -59.1666,-476.883 -112.79,-521.878 -59.1666,-476.883 -88.7498,-540.325 -118.333,-603.766 -118.333,-673.766 -118.333,-743.766 -88.7498,-807.208 -118.333,-743.766 -147.916,-807.208 -118.333,-743.766 -118.333,-813.766 -118.333,-603.766 -171.956,-648.761 -225.579,-693.756 -255.163,-757.198 -225.579,-693.756 -293.194,-711.874 -225.579,-693.756 -279.202,-738.752 " style = "stroke-width: 1.000000; stroke: rgb(255,0,0); fill:none;" >
</polyline>
<polyline points = "0,0 4.28626e-15,-70 29.5833,-133.442 4.28626e-15,-70 -29.5833,-133.442 4.28626e-15,-70 8.57253e-15,-140 1.28588e-14,-210 29.5833,-273.442 59.1666,-336.883 112.79,-381.878 59.1666,-336.883 59.1666,-406.883 59.1666,-336.883 88.7498,-400.325 1.28588e-14,-210 -29.5833,-273.442 -59.1666,-336.883 -59.1666,-406.883 -59.1666,-336.883 -112.79,-381.878 -59.1666,-336.883 -88.7498,-400.325 1.28588e-14,-210 1.71451e-14,-280 2.14313e-14,-350 29.5833,-413.442 59.1666,-476.883 112.79,-521.878 59.1666,-476.883 59.1666,-546.883 59.1666,-476.883 88.7498,-540.325 118.333,-603.766 171.956,-648.761 225.579,-693.756 293.194,-711.874 225.579,-693.756 255.163,-757.198 225.579,-693.756 279.202,-738.752 118.333,-603.766 118.333,-673.766 118.333,-743.766 147.916,-807.208 118.333,-743.766 88.7498,-807.208 118.333,-743.766 118.333,-813.766 118.333,-603.766 147.916,-667.208 2.14313e-14,-350 -29.5833,-413.442 -59.1666,-476.883 -59.1666,-546.883 -59.1666,-476.883 -112.79,-521.878 -59.1666,-476.883 -88.7498,-540.325 -118.333,-603.766 -118.333,-673.766 -118.333,-743.766 -88.7498,-807.208 -118.333,-743.766 -147.916,-807.208 -118.333,-743.766 -118.333,-813.766 -118.333,-603.766 -171.956,-648.761 -225.579,-693.756 -255.163,-757.198 -225.579,-693.756 -293.194,-711.874 -225.579,-693.756 -279.202,-738.752 -118.333,-603.766 -147.916,-667.208 " style = "stroke-width: 1.000000; stroke: rgb(255,0,0); fill:none;" >
</polyline>
<polyline points = "0,0 4.28626e-15,-70 29.5833,-133.442 4.28626e-15,-70 -29.5833,-133.442 4.28626e-15,-70 8.57253e-15,-140 1.28588e-14,-210 29.5833,-273.442 59.1666,-336.883 112.79,-381.878 59.1666,-336.883 59.1666,-406.883 59.1666,-336.883 88.7498,-400.325 1.28588e-14,-210 -29.5833,-273.442 -59.1666,-336.883 -59.1666,-406.883 -59.1666,-336.883 -112.79,-381.878 -59.1666,-336.883 -88.7498,-400.325 1.28588e-14,-210 1.71451e-14,-280 2.14313e-14,-350 29.5833,-413.442 59.1666,-476.883 112.79,-521.878 59.1666,-476.883 59.1666,-546.883 59.1666,-476.883 88.7498,-540.325 118.333,-603.766 171.956,-648.761 225.579,-693.756 293.194,-711.874 225.579,-693.756 255.163,-757.198 225.579,-693.756 279.202,-738.752 118.333,-603.766 118.333,-673.766 118.333,-743.766 147.916,-807.208 118.333,-743.766 88.7498,-807.208 118.333,-743.766 118.333,-813.766 118.333,-603.766 147.916,-667.208 2.14313e-14,-350 -29.5833,-413.442 -59.1666,-476.883 -59.1666,-546.883 -59.1666,-476.883 -112.79,-521.878 -59.1666,-476.883 -88.7498,-540.325 -118.333,-603.766 -118.333,-673.766 -118.333,-743.766 -88.7498,-807.208 -118.333,-743.766 -147.916,-807.208 -118.333,-743.766 -118.333,-813.766 -118.333,-603.766 -171.956,-648.761 -225.579,-693.756 -255.163,-757.198 -225.579,-693.756 -293.194,-711.874 -225.579,-693.756 -279.202,-738.752 -118.333,-603.766 -147.916,-667.208 2.14313e-14,-350 2.57176e-14,-420 " style = "stroke-width: 1.000000; stroke: rgb(255,0,0); fill:none;" >
</polyline>
</svg>
