<?xml version="1.0" standalone="no"?>
<!DOCTYPE svg PUBLIC "-//W3C//DTD SVG 1.1//EN" "http://www.w3.org/Graphics/SVG/1.1/DTD/svg11.dtd">
<svg version = "1.1" viewBox = "-460 0 520 500" xmlns = "http://www.w3.org/2000/svg" >
<polyline points = "0,0 20,0 20,20 20,40 0,40 -3.67394e-15,20 20,20 40,20 40,40 20,40 0,40 -8.57253e-15,20 20,20 20,40 20,60 20,80 0,80 -20,80 -20,60 0,60 -1.96067e-14,80 -3.92135e-14,100 -20,100 -20,80 -20,60 0,60 5.63461e-14,80 -20,80 -40,80 -40,60 -20,60 0,60 1.32299e-13,80 -20,80 -20,60 -20,40 0,40 -4.91097e-15,60 -9.82193e-15,80 -20,80 -20,60 0,60 20,60 40,60 40,80 40,100 20,100 20,80 40,80 60,80 60,100 40,100 20,100 20,80 40,80 40,100 40,120 20,120 20,100 20,80 40,80 40,100 20,100 0,100 -20,100 -20,80 -20,60 0,60 1.9582e-14,80 -20,80 -40,80 -40,60 -20,60 0,60 1.66589e-13,80 -20,80 -20,60 -20,40 0,40 2.93791e-14,60 5.87583e-14,80 -20,80 -20,60 0,60 20,60 20,80 0,80 -20,80 -20,60 0,60 3.23393e-13,80 6.46787e-13,100 9.7018e-13,120 -20,120 -40,120 -40,100 -20,100 -20,120 -20,140 -20,160 -40,160 -60,160 -60,140 -40,140 -40,160 -40,180 -60,180 -60,160 -60,140 -40,140 -40,160 -60,160 -80,160 -100,160 -100,140 -100,120 -80,120 -80,140 -100,140 -120,140 -120,120 -100,120 -80,120 -80,140 -100,140 -100,120 -100,100 -80,100 -80,120 -80,140 -100,140 -100,120 -80,120 -60,120 -60,140 -80,140 -100,140 -100,120 -80,120 -80,140 -80,160 -80,180 -100,180 -120,180 -120,160 -100,160 -100,180 -100,200 -120,200 -120,180 -120,160 -100,160 -100,180 -120,180 -140,180 -140,160 -120,160 -100,160 -100,180 -120,180 -120,160 -120,140 -120,120 -100,120 -80,120 -80,140 -100,140 -100,120 -100,100 -80,100 -80,120 -80,140 -100,140 -100,120 -80,120 -60,120 -60,140 -80,140 -100,140 -100,120 -80,120 -80,140 -80,160 -100,160 -100,140 -100,120 -80,120 -80,140 -100,140 -120,140 -140,140 -140,120 -140,100 -120,100 -120,120 -140,120 -160,120 -160,100 -140,100 -120,100 -120,120 -140,120 -140,100 -140,80 -120,80 -120,100 -120,120 -140,120 -140,100 -120,100 -100,100 -80,100 -80,120 -80,140 -100,140 -100,120 -80,120 -60,120 -60,140 -80,140 -100,140 -100,120 -80,120 -80,140 -80,160 -100,160 -100,140 -100,120 -80,120 -80,140 -100,140 -120,140 -120,120 -100,120 -80,120 -80,140 -100,140 -100,120 -100,100 -100,80 -80,80 -60,80 -60,100 -80,100 -80,80 -80,60 -60,60 -60,80 -60,100 -80,100 -80,80 -60,80 -40,80 -40,100 -60,100 -80,100 -80,80 -60,80 -60,100 -60,120 -60,140 -80,140 -100,140 -100,120 -80,120 -80,140 -80,160 -100,160 -100,140 -100,120 -80,120 -80,140 -100,140 -120,140 -120,120 -100,120 -80,120 -80,140 -100,140 -100,120 -100,100 -80,100 -80,120 -80,140 -100,140 -100,120 -80,120 -60,120 -40,120 -40,140 -40,160 -60,160 -60,140 -40,140 -20,140 0,140 7.74162e-13,160 1.54832e-12,180 -20,180 -20,160 0,160 20,160 20,180 0,180 -20,180 -20,160 0,160 4.99743e-13,180 9.99485e-13,200 1.49923e-12,220 -20,220 -40,220 -40,200 -20,200 -20,220 -20,240 -40,240 -40,220 -40,200 -20,200 -20,220 -40,220 -60,220 -60,200 -40,200 -20,200 -20,220 -40,220 -40,200 -40,180 -20,180 -20,200 -20,220 -40,220 -40,200 -20,200 0,200 20,200 20,220 20,240 0,240 -5.97739e-13,220 20,220 40,220 40,240 20,240 0,240 -1.02896e-12,220 20,220 20,240 20,260 0,260 -3.23319e-13,240 -6.46638e-13,220 20,220 20,240 0,240 -20,240 -40,240 -40,220 -40,200 -20,200 -20,220 -40,220 -60,220 -60,200 -40,200 -20,200 -20,220 -40,220 -40,200 -40,180 -20,180 -20,200 -20,220 -40,220 -40,200 -20,200 0,200 -9.90859e-15,220 -20,220 -40,220 -40,200 -20,200 -20,220 -20,240 -20,260 -40,260 -60,260 -60,240 -40,240 -40,260 -40,280 -60,280 -60,260 -60,240 -40,240 -40,260 -60,260 -80,260 -80,240 -60,240 -40,240 -40,260 -60,260 -60,240 -60,220 -60,200 -40,200 -20,200 -20,220 -40,220 -40,200 -40,180 -20,180 -20,200 -20,220 -40,220 -40,200 -20,200 0,200 -4.01944e-13,220 -20,220 -40,220 -40,200 -20,200 -20,220 -20,240 -40,240 -40,220 -40,200 -20,200 -20,220 -40,220 -60,220 -80,220 -80,200 -80,180 -60,180 -60,200 -80,200 -100,200 -120,200 -120,180 -120,160 -100,160 -100,180 -120,180 -140,180 -140,160 -120,160 -100,160 -100,180 -120,180 -120,160 -120,140 -120,120 -100,120 -80,120 -80,140 -100,140 -100,120 -100,100 -80,100 -80,120 -80,140 -100,140 -100,120 -80,120 -60,120 -60,140 -80,140 -100,140 -100,120 -80,120 -80,140 -80,160 -100,160 -100,140 -100,120 -80,120 -80,140 -100,140 -120,140 -140,140 -140,120 -140,100 -120,100 -120,120 -140,120 -160,120 -160,100 -140,100 -120,100 -120,120 -140,120 -140,100 -140,80 -120,80 -120,100 -120,120 -140,120 -140,100 -120,100 -100,100 -80,100 -80,120 -80,140 -100,140 -100,120 -80,120 -60,120 -60,140 -80,140 -100,140 -100,120 -80,120 -80,140 -80,160 -100,160 -100,140 -100,120 -80,120 -80,140 -100,140 -120,140 -120,120 -100,120 -80,120 -80,140 -100,140 -100,120 -100,100 -100,80 -80,80 -60,80 -60,100 -80,100 -80,80 -80,60 -60,60 -60,80 -60,100 -80,100 -80,80 -60,80 -40,80 -40,100 -60,100 -80,100 -80,80 -60,80 -60,100 -60,120 -60,140 -80,140 -100,140 -100,120 -80,120 -80,140 -80,160 -100,160 -100,140 -100,120 -80,120 -80,140 -100,140 -120,140 -120,120 -100,120 -80,120 -80,140 -100,140 -100,120 -100,100 -80,100 -80,120 -80,140 -100,140 -100,120 -80,120 -60,120 -40,120 -40,140 -40,160 -60,160 -60,140 -40,140 -20,140 -20,160 -40,160 -60,160 -60,140 -40,140 -40,160 -40,180 -60,180 -60,160 -60,140 -40,140 -40,160 -60,160 -80,160 -100,160 -100,140 -100,120 -80,120 -80,140 -100,140 -120,140 -120,120 -100,120 -80,120 -80,140 -100,140 -100,120 -100,100 -80,100 -80,120 -80,140 -100,140 -100,120 -80,120 -60,120 -60,140 -80,140 -100,140 -100,120 -80,120 -80,140 -80,160 -80,180 -100,180 -120,180 -120,160 -100,160 -100,180 -100,200 -100,220 -120,220 -140,220 -140,200 -120,200 -120,220 -120,240 -140,240 -140,220 -140,200 -120,200 -120,220 -140,220 -160,220 -180,220 -180,200 -180,180 -160,180 -160,200 -180,200 -200,200 -200,180 -180,180 -160,180 -160,200 -180,200 -180,180 -180,160 -160,160 -160,180 -160,200 -180,200 -180,180 -160,180 -140,180 -140,200 -160,200 -180,200 -180,180 -160,180 -160,200 -160,220 -160,240 -180,240 -200,240 -200,220 -180,220 -180,240 -180,260 -180,280 -200,280 -220,280 -220,260 -200,260 -200,280 -200,300 -220,300 -220,280 -220,260 -200,260 -200,280 -220,280 -240,280 -260,280 -260,260 -260,240 -240,240 -240,260 -260,260 -280,260 -280,240 -260,240 -240,240 -240,260 -260,260 -260,240 -260,220 -240,220 -240,240 -240,260 -260,260 -260,240 -240,240 -220,240 -220,260 -240,260 -260,260 -260,240 -240,240 -240,260 -240,280 -240,300 -260,300 -280,300 -280,280 -260,280 -260,300 -260,320 -280,320 -280,300 -280,280 -260,280 -260,300 -280,300 -300,300 -300,280 -280,280 -260,280 -260,300 -280,300 -280,280 -280,260 -280,240 -260,240 -240,240 -240,260 -260,260 -260,240 -260,220 -240,220 -240,240 -240,260 -260,260 -260,240 -240,240 -220,240 -220,260 -240,260 -260,260 -260,240 -240,240 -240,260 -240,280 -260,280 -260,260 -260,240 -240,240 -240,260 -260,260 -280,260 -300,260 -300,240 -300,220 -280,220 -280,240 -300,240 -320,240 -340,240 -340,220 -340,200 -320,200 -320,220 -340,220 -360,220 -360,200 -340,200 -320,200 -320,220 -340,220 -340,200 -340,180 -340,160 -320,160 -300,160 -300,180 -320,180 -320,160 -320,140 -300,140 -300,160 -300,180 -320,180 -320,160 -300,160 -280,160 -280,180 -300,180 -320,180 -320,160 -300,160 -300,180 -300,200 -320,200 -320,180 -320,160 -300,160 -300,180 -320,180 -340,180 -360,180 -360,160 -360,140 -340,140 -340,160 -360,160 -380,160 -380,140 -360,140 -340,140 -340,160 -360,160 -360,140 -360,120 -340,120 -340,140 -340,160 -360,160 -360,140 -340,140 -320,140 -300,140 -300,160 -300,180 -320,180 -320,160 -300,160 -280,160 -280,180 -300,180 -320,180 -320,160 -300,160 -300,180 -300,200 -320,200 -320,180 -320,160 -300,160 -300,180 -320,180 -340,180 -340,160 -320,160 -300,160 -300,180 -320,180 -320,160 -320,140 -320,120 -300,120 -280,120 -280,140 -300,140 -300,120 -300,100 -280,100 -280,120 -280,140 -300,140 -300,120 -280,120 -260,120 -260,140 -280,140 -300,140 -300,120 -280,120 -280,140 -280,160 -280,180 -300,180 -320,180 -320,160 -300,160 -300,180 -300,200 -320,200 -320,180 -320,160 -300,160 -300,180 -320,180 -340,180 -340,160 -320,160 -300,160 -300,180 -320,180 -320,160 -320,140 -300,140 -300,160 -300,180 -320,180 -320,160 -300,160 -280,160 -260,160 -260,180 -260,200 -280,200 -280,180 -260,180 -240,180 -240,200 -260,200 -280,200 -280,180 -260,180 -260,200 -260,220 -280,220 -280,200 -280,180 -260,180 -260,200 -280,200 -300,200 -320,200 -320,180 -320,160 -300,160 -300,180 -320,180 -340,180 -340,160 -320,160 -300,160 -300,180 -320,180 -320,160 -320,140 -300,140 -300,160 -300,180 -320,180 -320,160 -300,160 -280,160 -280,180 -300,180 -320,180 -320,160 -300,160 -300,180 -300,200 -300,220 -320,220 -340,220 -340,200 -320,200 -320,220 -320,240 -320,260 -340,260 -360,260 -360,240 -340,240 -340,260 -340,280 -360,280 -360,260 -360,240 -340,240 -340,260 -360,260 -380,260 -400,260 -400,240 -400,220 -380,220 -380,240 -400,240 -420,240 -420,220 -400,220 -380,220 -380,240 -400,240 -400,220 -400,200 -380,200 -380,220 -380,240 -400,240 -400,220 -380,220 -360,220 -360,240 -380,240 -400,240 -400,220 -380,220 -380,240 -380,260 -380,280 -400,280 -420,280 -420,260 -400,260 -400,280 -400,300 -420,300 -420,280 -420,260 -400,260 -400,280 -420,280 -440,280 -440,260 -420,260 -400,260 -400,280 -420,280 -420,260 -420,240 -420,220 -400,220 -380,220 -380,240 -400,240 -400,220 -400,200 -380,200 -380,220 -380,240 -400,240 -400,220 -380,220 -360,220 -360,240 -380,240 -400,240 -400,220 -380,220 -380,240 -380,260 -400,260 -400,240 -400,220 -380,220 -380,240 -400,240 -420,240 -440,240 -440,220 -440,200 -420,200 -420,220 -440,220 -460,220 -460,200 -440,200 -420,200 -420,220 -440,220 -440,200 -440,180 -420,180 -420,200 -420,220 -440,220 -440,200 -420,200 -400,200 -380,200 -380,220 -380,240 -400,240 -400,220 -380,220 -360,220 -360,240 -380,240 -400,240 -400,220 -380,220 -380,240 -380,260 -400,260 -400,240 -400,220 -380,220 -380,240 -400,240 -420,240 -420,220 -400,220 -380,220 -380,240 -400,240 -400,220 -400,200 -400,180 -380,180 -360,180 -360,200 -380,200 -380,180 -380,160 -380,140 -360,140 -340,140 -340,160 -360,160 -360,140 -360,120 -340,120 -340,140 -340,160 -360,160 -360,140 -340,140 -320,140 -300,140 -300,160 -300,180 -320,180 -320,160 -300,160 -280,160 -280,180 -300,180 -320,180 -320,160 -300,160 -300,180 -300,200 -320,200 -320,180 -320,160 -300,160 -300,180 -320,180 -340,180 -340,160 -320,160 -300,160 -300,180 -320,180 -320,160 -320,140 -320,120 -300,120 -280,120 -280,140 -300,140 -300,120 -300,100 -280,100 -280,120 -280,140 -300,140 -300,120 -280,120 -260,120 -260,140 -280,140 -300,140 -300,120 -280,120 -280,140 -280,160 -280,180 -300,180 -320,180 -320,160 -300,160 -300,180 -300,200 -320,200 -320,180 -320,160 -300,160 -300,180 -320,180 -340,180 -340,160 -320,160 -300,160 -300,180 -320,180 -320,160 -320,140 -300,140 -300,160 -300,180 -320,180 -320,160 -300,160 -280,160 -260,160 -260,180 -260,200 -280,200 -280,180 -260,180 -240,180 -240,200 -260,200 -280,200 -280,180 -260,180 -260,200 -260,220 -280,220 -280,200 -280,180 -260,180 -260,200 -280,200 -300,200 -320,200 -320,180 -320,160 -300,160 -300,180 -320,180 -340,180 -340,160 -320,160 -300,160 -300,180 -320,180 -320,160 -320,140 -300,140 -300,160 -300,180 -320,180 -320,160 -300,160 -280,160 -280,180 -300,180 -320,180 -320,160 -300,160 -300,180 -300,200 -300,220 -320,220 -340,220 -340,200 -320,200 -320,220 -320,240 -340,240 -340,220 -340,200 -320,200 -320,220 -340,220 -360,220 -360,200 -340,200 -320,200 -320,220 -340,220 -340,200 -340,180 -340,160 -320,160 -300,160 -300,180 -320,180 -320,160 -320,140 -300,140 -300,160 -300,180 -320,180 -320,160 -300,160 -280,160 -280,180 -300,180 -320,180 -320,160 -300,160 -300,180 -300,200 -320,200 -320,180 -320,160 -300,160 -300,180 -320,180 -340,180 -360,180 -360,160 -360,140 -340,140 -340,160 -360,160 -380,160 -400,160 -400,140 -400,120 -380,120 -380,140 -400,140 -420,140 -420,120 -400,120 -380,120 -380,140 -400,140 -400,120 -400,100 -400,80 -380,80 -360,80 -360,100 -380,100 -380,80 -380,60 -360,60 -360,80 -360,100 -380,100 -380,80 -360,80 -340,80 -340,100 -360,100 -380,100 -380,80 -360,80 -360,100 -360,120 -380,120 -380,100 -380,80 -360,80 -360,100 -380,100 -400,100 -420,100 -420,80 -420,60 -400,60 -400,80 -420,80 -440,80 -440,60 -420,60 -400,60 -400,80 -420,80 -420,60 -420,40 -400,40 -400,60 -400,80 -420,80 -420,60 -400,60 -380,60 -360,60 -360,80 -360,100 -380,100 -380,80 -360,80 -340,80 -340,100 -360,100 -380,100 -380,80 -360,80 -360,100 -360,120 -380,120 -380,100 -380,80 -360,80 -360,100 -380,100 -400,100 -400,80 -380,80 -360,80 -360,100 -380,100 -380,80 -380,60 -380,40 -360,40 -340,40 -340,60 -360,60 -360,40 -360,20 -340,20 -340,40 -340,60 -360,60 -360,40 -340,40 -320,40 -320,60 -340,60 -360,60 -360,40 -340,40 -340,60 -340,80 -340,100 -360,100 -380,100 -380,80 -360,80 -360,100 -360,120 -380,120 -380,100 -380,80 -360,80 -360,100 -380,100 -400,100 -400,80 -380,80 -360,80 -360,100 -380,100 -380,80 -380,60 -360,60 -360,80 -360,100 -380,100 -380,80 -360,80 -340,80 -320,80 -320,100 -320,120 -340,120 -340,100 -320,100 -300,100 -280,100 -280,120 -280,140 -300,140 -300,120 -280,120 -260,120 -260,140 -280,140 -300,140 -300,120 -280,120 -280,140 -280,160 -280,180 -300,180 -320,180 -320,160 -300,160 -300,180 -300,200 -320,200 -320,180 -320,160 -300,160 -300,180 -320,180 -340,180 -340,160 -320,160 -300,160 -300,180 -320,180 -320,160 -320,140 -300,140 -300,160 -300,180 -320,180 -320,160 -300,160 -280,160 -260,160 -260,180 -260,200 -280,200 -280,180 -260,180 -240,180 -240,200 -260,200 -280,200 -280,180 -260,180 -260,200 -260,220 -280,220 -280,200 -280,180 -260,180 -260,200 -280,200 -300,200 -320,200 -320,180 -320,160 -300,160 -300,180 -320,180 -340,180 -340,160 -320,160 -300,160 -300,180 -320,180 -320,160 -320,140 -300,140 -300,160 -300,180 -320,180 -320,160 -300,160 -280,160 -280,180 -300,180 -320,180 -320,160 -300,160 -300,180 -300,200 -300,220 -320,220 -340,220 -340,200 -320,200 -320,220 -320,240 -340,240 -340,220 -340,200 -320,200 -320,220 -340,220 -360,220 -360,200 -340,200 -320,200 -320,220 -340,220 -340,200 -340,180 -340,160 -320,160 -300,160 -300,180 -320,180 -320,160 -320,140 -300,140 -300,160 -300,180 -320,180 -320,160 -300,160 -280,160 -280,180 -300,180 -320,180 -320,160 -300,160 -300,180 -300,200 -320,200 -320,180 -320,160 -300,160 -300,180 -320,180 -340,180 -360,180 -360,160 -360,140 -340,140 -340,160 -360,160 -380,160 -380,140 -360,140 -340,140 -340,160 -360,160 -360,140 -360,120 -340,120 -340,140 -340,160 -360,160 -360,140 -340,140 -320,140 -300,140 -300,160 -300,180 -320,180 -320,160 -300,160 -280,160 -280,180 -300,180 -320,180 -320,160 -300,160 -300,180 -300,200 -320,200 -320,180 -320,160 -300,160 -300,180 -320,180 -340,180 -340,160 -320,160 -300,160 -300,180 -320,180 -320,160 -320,140 -320,120 -300,120 -280,120 -280,140 -300,140 -300,120 -300,100 -300,80 -280,80 -260,80 -260,100 -280,100 -280,80 -280,60 -260,60 -260,80 -260,100 -280,100 -280,80 -260,80 -240,80 -220,80 -220,100 -220,120 -240,120 -240,100 -220,100 -200,100 -200,120 -220,120 -240,120 -240,100 -220,100 -220,120 -220,140 -240,140 -240,120 -240,100 -220,100 -220,120 -240,120 -260,120 -260,100 -240,100 -220,100 -220,120 -240,120 -240,100 -240,80 -240,60 -220,60 -200,60 -200,80 -220,80 -220,60 -220,40 -200,40 -200,60 -200,80 -220,80 -220,60 -200,60 -180,60 -180,80 -200,80 -220,80 -220,60 -200,60 -200,80 -200,100 -200,120 -220,120 -240,120 -240,100 -220,100 -220,120 -220,140 -240,140 -240,120 -240,100 -220,100 -220,120 -240,120 -260,120 -260,100 -240,100 -220,100 -220,120 -240,120 -240,100 -240,80 -220,80 -220,100 -220,120 -240,120 -240,100 -220,100 -200,100 -180,100 -180,120 -180,140 -200,140 -200,120 -180,120 -160,120 -160,140 -180,140 -200,140 -200,120 -180,120 -180,140 -180,160 -200,160 -200,140 -200,120 -180,120 -180,140 -200,140 -220,140 -240,140 -240,120 -240,100 -220,100 -220,120 -240,120 -260,120 -260,100 -240,100 -220,100 -220,120 -240,120 -240,100 -240,80 -220,80 -220,100 -220,120 -240,120 -240,100 -220,100 -200,100 -200,120 -220,120 -240,120 -240,100 -220,100 -220,120 -220,140 -220,160 -240,160 -260,160 -260,140 -240,140 -240,160 -240,180 -240,200 -260,200 -280,200 -280,180 -260,180 -260,200 -260,220 -280,220 -280,200 -280,180 -260,180 -260,200 -280,200 -300,200 -320,200 -320,180 -320,160 -300,160 -300,180 -320,180 -340,180 -340,160 -320,160 -300,160 -300,180 -320,180 -320,160 -320,140 -300,140 -300,160 -300,180 -320,180 -320,160 -300,160 -280,160 -280,180 -300,180 -320,180 -320,160 -300,160 -300,180 -300,200 -300,220 -320,220 -340,220 -340,200 -320,200 -320,220 -320,240 -340,240 -340,220 -340,200 -320,200 -320,220 -340,220 -360,220 -360,200 -340,200 -320,200 -320,220 -340,220 -340,200 -340,180 -340,160 -320,160 -300,160 -300,180 -320,180 -320,160 -320,140 -300,140 -300,160 -300,180 -320,180 -320,160 -300,160 -280,160 -280,180 -300,180 -320,180 -320,160 -300,160 -300,180 -300,200 -320,200 -320,180 -320,160 -300,160 -300,180 -320,180 -340,180 -360,180 -360,160 -360,140 -340,140 -340,160 -360,160 -380,160 -380,140 -360,140 -340,140 -340,160 -360,160 -360,140 -360,120 -340,120 -340,140 -340,160 -360,160 -360,140 -340,140 -320,140 -300,140 -300,160 -300,180 -320,180 -320,160 -300,160 -280,160 -280,180 -300,180 -320,180 -320,160 -300,160 -300,180 -300,200 -320,200 -320,180 -320,160 -300,160 -300,180 -320,180 -340,180 -340,160 -320,160 -300,160 -300,180 -320,180 -320,160 -320,140 -320,120 -300,120 -280,120 -280,140 -300,140 -300,120 -300,100 -280,100 -280,120 -280,140 -300,140 -300,120 -280,120 -260,120 -260,140 -280,140 -300,140 -300,120 -280,120 -280,140 -280,160 -280,180 -300,180 -320,180 -320,160 -300,160 -300,180 -300,200 -320,200 -320,180 -320,160 -300,160 -300,180 -320,180 -340,180 -340,160 -320,160 -300,160 -300,180 -320,180 -320,160 -320,140 -300,140 -300,160 -300,180 -320,180 -320,160 -300,160 -280,160 -260,160 -260,180 -260,200 -280,200 -280,180 -260,180 -240,180 -220,180 -220,200 -220,220 -240,220 -240,200 -220,200 -200,200 -200,220 -220,220 -240,220 -240,200 -220,200 -220,220 -220,240 -220,260 -240,260 -260,260 -260,240 -240,240 -240,260 -240,280 -260,280 -260,260 -260,240 -240,240 -240,260 -260,260 -280,260 -280,240 -260,240 -240,240 -240,260 -260,260 -260,240 -260,220 -240,220 -240,240 -240,260 -260,260 -260,240 -240,240 -220,240 -200,240 -200,260 -200,280 -220,280 -220,260 -200,260 -180,260 -160,260 -160,280 -160,300 -180,300 -180,280 -160,280 -140,280 -140,300 -160,300 -180,300 -180,280 -160,280 -160,300 -160,320 -160,340 -180,340 -200,340 -200,320 -180,320 -180,340 -180,360 -200,360 -200,340 -200,320 -180,320 -180,340 -200,340 -220,340 -220,320 -200,320 -180,320 -180,340 -200,340 -200,320 -200,300 -180,300 -180,320 -180,340 -200,340 -200,320 -180,320 -160,320 -140,320 -140,340 -140,360 -160,360 -160,340 -140,340 -120,340 -120,360 -140,360 -160,360 -160,340 -140,340 -140,360 -140,380 -160,380 -160,360 -160,340 -140,340 -140,360 -160,360 -180,360 -200,360 -200,340 -200,320 -180,320 -180,340 -200,340 -220,340 -220,320 -200,320 -180,320 -180,340 -200,340 -200,320 -200,300 -180,300 -180,320 -180,340 -200,340 -200,320 -180,320 -160,320 -160,340 -180,340 -200,340 -200,320 -180,320 -180,340 -180,360 -180,380 -200,380 -220,380 -220,360 -200,360 -200,380 -200,400 -200,420 -220,420 -240,420 -240,400 -220,400 -220,420 -220,440 -240,440 -240,420 -240,400 -220,400 -220,420 -240,420 -260,420 -280,420 -280,400 -280,380 -260,380 -260,400 -280,400 -300,400 -300,380 -280,380 -260,380 -260,400 -280,400 -280,380 -280,360 -260,360 -260,380 -260,400 -280,400 -280,380 -260,380 -240,380 -240,400 -260,400 -280,400 -280,380 -260,380 -260,400 -260,420 -260,440 -280,440 -300,440 -300,420 -280,420 -280,440 -280,460 -300,460 -300,440 -300,420 -280,420 -280,440 -300,440 -320,440 -320,420 -300,420 -280,420 -280,440 -300,440 -300,420 -300,400 -300,380 -280,380 -260,380 -260,400 -280,400 -280,380 -280,360 -260,360 -260,380 -260,400 -280,400 -280,380 -260,380 -240,380 -240,400 -260,400 -280,400 -280,380 -260,380 -260,400 -260,420 -280,420 -280,400 -280,380 -260,380 -260,400 -280,400 -300,400 -320,400 -320,380 -320,360 -300,360 -300,380 -320,380 -340,380 -340,360 -320,360 -300,360 -300,380 -320,380 -320,360 -320,340 -300,340 -300,360 -300,380 -320,380 -320,360 -300,360 -280,360 -260,360 -260,380 -260,400 -280,400 -280,380 -260,380 -240,380 -240,400 -260,400 -280,400 -280,380 -260,380 -260,400 -260,420 -280,420 -280,400 -280,380 -260,380 -260,400 -280,400 -300,400 -300,380 -280,380 -260,380 -260,400 -280,400 -280,380 -280,360 -280,340 -260,340 -240,340 -240,360 -260,360 -260,340 -260,320 -240,320 -240,340 -240,360 -260,360 -260,340 -240,340 -220,340 -220,360 -240,360 -260,360 -260,340 -240,340 -240,360 -240,380 -240,400 -260,400 -280,400 -280,380 -260,380 -260,400 -260,420 -280,420 -280,400 -280,380 -260,380 -260,400 -280,400 -300,400 -300,380 -280,380 -260,380 -260,400 -280,400 -280,380 -280,360 -260,360 -260,380 -260,400 -280,400 -280,380 -260,380 -240,380 -220,380 -220,400 -220,420 -240,420 -240,400 -220,400 -200,400 -180,400 -180,420 -180,440 -200,440 -200,420 -180,420 -160,420 -160,440 -180,440 -200,440 -200,420 -180,420 -180,440 -180,460 -180,480 -200,480 -220,480 -220,460 -200,460 -200,480 -200,500 -220,500 -220,480 -220,460 -200,460 -200,480 -220,480 -240,480 -240,460 -220,460 -200,460 -200,480 -220,480 -220,460 -220,440 -200,440 -200,460 -200,480 -220,480 -220,460 -200,460 -180,460 -160,460 -160,480 -160,500 -180,500 -180,480 -160,480 -140,480 " style = "stroke-width: 2.000000; stroke: rgb(255,0,0); fill:none;" >
</polyline>
</svg>
