<?xml version="1.0" standalone="no"?>
<!DOCTYPE svg PUBLIC "-//W3C//DTD SVG 1.1//EN" "http://www.w3.org/Graphics/SVG/1.1/DTD/svg11.dtd">
<svg version = "1.1" viewBox = "-60.6218 -45 138.564 105" xmlns = "http://www.w3.org/2000/svg" >
<polyline points = "0,0 3.06162e-15,10 -8.66025,15 -4.4061e-07,10 8.66025,15 17.3205,10 25.9808,15 17.3205,10 17.3205,0 25.9808,-5 34.641,-1.59872e-14 25.9808,-5 25.9808,-15 17.3205,-20 17.3205,-30 17.3205,-20 8.66025,-15 17.3205,-20 25.9808,-15 17.3205,-20 17.3205,-30 8.66025,-35 8.66025,-45 8.66025,-35 -1.46674e-06,-30 -8.66026,-35 -8.66026,-45 -8.66026,-35 -17.3205,-30 -17.3205,-20 -25.9808,-15 -17.3205,-20 -8.66025,-15 -4.4061e-07,-20 8.66025,-15 -5.13064e-07,-20 -5.13064e-07,-30 -8.66025,-35 -8.66025,-45 -8.66025,-35 -17.3205,-30 -25.9808,-35 -25.9808,-45 -25.9808,-35 -34.641,-30 -34.641,-20 -43.3013,-15 -34.641,-20 -25.9808,-15 -34.641,-20 -34.641,-30 -34.641,-20 -43.3013,-15 -43.3013,-5 -51.9615,1.74083e-13 -43.3013,-5 -34.641,3.01981e-14 -34.641,10 -43.3013,15 -34.641,10 -25.9808,15 -17.3205,10 -8.66026,15 -17.3205,10 -17.3205,0 -8.66026,-5 -2.34796e-06,1.40332e-13 -8.66026,-5 -8.66026,-15 -17.3205,-20 -17.3205,-30 -17.3205,-20 -25.9808,-15 -34.641,-20 -34.641,-30 -34.641,-20 -43.3013,-15 -43.3013,-5 -51.9615,1.9984e-13 -43.3013,-5 -34.641,4.44089e-15 -43.3013,-5 -43.3013,-15 -43.3013,-5 -51.9615,2.13163e-14 -51.9615,10 -60.6218,15 -51.9615,10 -43.3013,15 -43.3013,25 -51.9615,30 -43.3013,25 -34.641,30 -25.9808,25 -17.3205,30 -25.9808,25 -25.9808,15 -34.641,10 -34.641,0 -34.641,10 -43.3013,15 -43.3013,25 -51.9615,30 -43.3013,25 -34.641,30 -34.641,40 -43.3013,45 -34.641,40 -25.9808,45 -17.3205,40 -8.66026,45 -17.3205,40 -17.3205,30 -17.3205,40 -25.9808,45 -17.3205,40 -8.66026,45 -2.34796e-06,40 8.66025,45 -2.42041e-06,40 -2.42041e-06,30 8.66025,25 17.3205,30 8.66025,25 8.66025,15 -3.37409e-06,10 -3.37409e-06,0 -3.37409e-06,10 -8.66026,15 -3.30163e-06,10 8.66025,15 -3.37409e-06,10 -3.37409e-06,0 -8.66026,-5 -8.66026,-15 -8.66026,-5 -17.3205,4.44977e-13 -25.9808,-5 -25.9808,-15 -25.9808,-5 -34.641,-1.65201e-13 -34.641,10 -43.3013,15 -34.641,10 -25.9808,15 -34.641,10 -34.641,0 -34.641,10 -43.3013,15 -43.3013,25 -51.9615,30 -43.3013,25 -34.641,30 -34.641,40 -43.3013,45 -34.641,40 -25.9808,45 -17.3205,40 -8.66026,45 -17.3205,40 -17.3205,30 -25.9808,25 -25.9808,15 -25.9808,25 -34.641,30 -34.641,40 -43.3013,45 -34.641,40 -25.9808,45 -25.9808,55 -34.641,60 -25.9808,55 -17.3205,60 -8.66026,55 -2.34796e-06,60 -8.66026,55 -8.66026,45 -8.66026,55 -17.3205,60 -8.66026,55 -2.34796e-06,60 8.66025,55 17.3205,60 8.66025,55 8.66025,45 17.3205,40 25.9808,45 17.3205,40 17.3205,30 8.66025,25 8.66025,15 8.66025,25 -3.37409e-06,30 -8.66026,25 -8.66026,15 -8.66026,25 -17.3205,30 -17.3205,40 -25.9808,45 -17.3205,40 -8.66026,45 -8.66026,55 -17.3205,60 -8.66026,55 -2.34796e-06,60 8.66025,55 17.3205,60 8.66025,55 8.66025,45 8.66025,55 -3.37409e-06,60 8.66025,55 17.3205,60 25.9808,55 34.641,60 25.9808,55 25.9808,45 34.641,40 43.3013,45 34.641,40 34.641,30 25.9808,25 25.9808,15 25.9808,25 17.3205,30 17.3205,40 8.66025,45 17.3205,40 25.9808,45 34.641,40 43.3013,45 34.641,40 34.641,30 43.3013,25 51.9615,30 43.3013,25 43.3013,15 34.641,10 34.641,0 34.641,10 25.9808,15 34.641,10 43.3013,15 34.641,10 34.641,0 25.9808,-5 25.9808,-15 25.9808,-5 17.3205,3.77476e-13 8.66025,-5 8.66025,-15 8.66025,-5 -1.46674e-06,-2.33591e-13 -1.46674e-06,10 -8.66026,15 -1.39428e-06,10 8.66025,15 17.3205,10 25.9808,15 17.3205,10 17.3205,0 8.66025,-5 8.66025,-15 8.66025,-5 -1.46674e-06,8.88178e-14 -8.66026,-5 -8.66026,-15 -8.66026,-5 -17.3205,4.62741e-13 -17.3205,10 -25.9808,15 -17.3205,10 -8.66025,15 -17.3205,10 -17.3205,0 -17.3205,10 -25.9808,15 -25.9808,25 -34.641,30 -25.9808,25 -17.3205,30 -17.3205,40 -25.9808,45 -17.3205,40 -8.66026,45 -2.34796e-06,40 8.66025,45 -2.42041e-06,40 -2.42041e-06,30 -8.66026,25 -8.66026,15 -8.66026,25 -17.3205,30 -17.3205,40 -25.9808,45 -17.3205,40 -8.66026,45 -8.66026,55 -17.3205,60 -8.66026,55 -2.34796e-06,60 8.66025,55 17.3205,60 8.66025,55 8.66025,45 8.66025,55 -3.37409e-06,60 8.66025,55 17.3205,60 25.9808,55 34.641,60 25.9808,55 25.9808,45 34.641,40 43.3013,45 34.641,40 34.641,30 25.9808,25 25.9808,15 25.9808,25 17.3205,30 8.66025,25 8.66025,15 8.66025,25 -1.46674e-06,30 -1.46674e-06,40 -8.66026,45 -1.39428e-06,40 8.66025,45 8.66025,55 -1.46674e-06,60 8.66025,55 17.3205,60 25.9808,55 34.641,60 25.9808,55 25.9808,45 25.9808,55 17.3205,60 25.9808,55 34.641,60 43.3013,55 51.9615,60 43.3013,55 43.3013,45 51.9615,40 60.6218,45 51.9615,40 51.9615,30 43.3013,25 43.3013,15 43.3013,25 34.641,30 34.641,40 25.9808,45 34.641,40 43.3013,45 51.9615,40 60.6218,45 51.9615,40 51.9615,30 60.6218,25 69.282,30 60.6218,25 60.6218,15 51.9615,10 51.9615,0 51.9615,10 43.3013,15 51.9615,10 60.6218,15 51.9615,10 51.9615,0 43.3013,-5 43.3013,-15 43.3013,-5 34.641,1.49747e-12 25.9808,-5 25.9808,-15 25.9808,-5 17.3205,-9.76996e-14 17.3205,10 8.66025,15 17.3205,10 25.9808,15 17.3205,10 17.3205,0 17.3205,10 8.66025,15 8.66025,25 -1.46674e-06,30 8.66025,25 17.3205,30 17.3205,40 8.66025,45 17.3205,40 25.9808,45 34.641,40 43.3013,45 34.641,40 34.641,30 34.641,40 25.9808,45 34.641,40 43.3013,45 51.9615,40 60.6218,45 51.9615,40 51.9615,30 60.6218,25 69.282,30 60.6218,25 60.6218,15 51.9615,10 51.9615,0 51.9615,10 43.3013,15 43.3013,25 34.641,30 43.3013,25 51.9615,30 60.6218,25 69.282,30 60.6218,25 60.6218,15 69.282,10 77.9423,15 69.282,10 69.282,0 60.6218,-5 60.6218,-15 60.6218,-5 51.9615,8.18901e-13 60.6218,-5 69.282,1.82965e-13 60.6218,-5 60.6218,-15 51.9615,-20 51.9615,-30 51.9615,-20 43.3013,-15 34.641,-20 34.641,-30 34.641,-20 25.9808,-15 25.9808,-5 17.3205,1.56319e-13 25.9808,-5 34.641,-9.37916e-13 34.641,10 25.9808,15 34.641,10 43.3013,15 51.9615,10 60.6218,15 51.9615,10 51.9615,0 60.6218,-5 69.282,-2.05791e-12 60.6218,-5 60.6218,-15 51.9615,-20 51.9615,-30 51.9615,-20 43.3013,-15 51.9615,-20 60.6218,-15 51.9615,-20 51.9615,-30 43.3013,-35 43.3013,-45 43.3013,-35 34.641,-30 25.9808,-35 25.9808,-45 25.9808,-35 17.3205,-30 17.3205,-20 8.66025,-15 17.3205,-20 25.9808,-15 34.641,-20 43.3013,-15 34.641,-20 34.641,-30 25.9808,-35 25.9808,-45 25.9808,-35 17.3205,-30 8.66025,-35 8.66025,-45 8.66025,-35 -1.46674e-06,-30 -1.46674e-06,-20 -8.66026,-15 -1.39429e-06,-20 8.66025,-15 -1.46674e-06,-20 -1.46674e-06,-30 -1.46674e-06,-20 -8.66026,-15 -8.66026,-5 -17.3205,1.44684e-12 -8.66025,-5 -4.40609e-07,-2.22755e-12 -4.40606e-07,10 -8.66025,15 -4.40611e-07,10 8.66025,15 17.3205,10 25.9808,15 17.3205,10 17.3205,0 " style = "stroke-width: 1.000000; stroke: rgb(255,0,0); fill:none;" >
</polyline>
</svg>
