<?xml version="1.0" standalone="no"?>
<!DOCTYPE svg PUBLIC "-//W3C//DTD SVG 1.1//EN" "http://www.w3.org/Graphics/SVG/1.1/DTD/svg11.dtd">
<svg version = "1.1" viewBox = "0 0 810 400" xmlns = "http://www.w3.org/2000/svg" >
<polyline points = "0,0 10,0 10,10 20,10 20,0 30,0 30,10 20,10 20,20 30,20 30,30 40,30 40,40 50,40 50,30 60,30 60,20 70,20 70,10 60,10 60,0 70,0 70,10 80,10 80,0 90,0 90,10 80,10 80,20 90,20 90,30 80,30 80,20 70,20 70,30 60,30 60,40 50,40 50,50 60,50 60,60 70,60 70,70 80,70 80,60 90,60 90,70 80,70 80,80 90,80 90,90 100,90 100,100 110,100 110,90 120,90 120,100 110,100 110,110 120,110 120,120 130,120 130,130 140,130 140,120 150,120 150,110 160,110 160,100 150,100 150,90 160,90 160,100 170,100 170,90 180,90 180,80 190,80 190,70 180,70 180,60 190,60 190,70 200,70 200,60 210,60 210,50 220,50 220,40 210,40 210,30 200,30 200,20 190,20 190,30 180,30 180,20 190,20 190,10 180,10 180,0 190,0 190,10 200,10 200,0 210,0 210,10 200,10 200,20 210,20 210,30 220,30 220,40 230,40 230,30 240,30 240,20 250,20 250,10 240,10 240,0 250,0 250,10 260,10 260,0 270,0 270,10 260,10 260,20 270,20 270,30 260,30 260,20 250,20 250,30 240,30 240,40 230,40 230,50 240,50 240,60 250,60 250,70 260,70 260,60 270,60 270,70 260,70 260,80 270,80 270,90 260,90 260,80 250,80 250,90 240,90 240,80 250,80 250,70 240,70 240,60 230,60 230,50 220,50 220,60 210,60 210,70 200,70 200,80 210,80 210,90 200,90 200,80 190,80 190,90 180,90 180,100 170,100 170,110 180,110 180,120 170,120 170,110 160,110 160,120 150,120 150,130 140,130 140,140 150,140 150,150 160,150 160,160 170,160 170,150 180,150 180,160 170,160 170,170 180,170 180,180 190,180 190,190 200,190 200,180 210,180 210,190 200,190 200,200 210,200 210,210 220,210 220,220 230,220 230,210 240,210 240,200 250,200 250,190 240,190 240,180 250,180 250,190 260,190 260,180 270,180 270,190 260,190 260,200 270,200 270,210 260,210 260,200 250,200 250,210 240,210 240,220 230,220 230,230 240,230 240,240 250,240 250,250 260,250 260,240 270,240 270,250 260,250 260,260 270,260 270,270 280,270 280,280 290,280 290,270 300,270 300,280 290,280 290,290 300,290 300,300 310,300 310,310 320,310 320,300 330,300 330,290 340,290 340,280 330,280 330,270 340,270 340,280 350,280 350,270 360,270 360,280 350,280 350,290 360,290 360,300 350,300 350,290 340,290 340,300 330,300 330,310 320,310 320,320 330,320 330,330 340,330 340,340 350,340 350,330 360,330 360,340 350,340 350,350 360,350 360,360 370,360 370,370 380,370 380,360 390,360 390,370 380,370 380,380 390,380 390,390 400,390 400,400 410,400 410,390 420,390 420,380 430,380 430,370 420,370 420,360 430,360 430,370 440,370 440,360 450,360 450,350 460,350 460,340 450,340 450,330 460,330 460,340 470,340 470,330 480,330 480,320 490,320 490,310 480,310 480,300 470,300 470,290 460,290 460,300 450,300 450,290 460,290 460,280 450,280 450,270 460,270 460,280 470,280 470,270 480,270 480,280 470,280 470,290 480,290 480,300 490,300 490,310 500,310 500,300 510,300 510,290 520,290 520,280 510,280 510,270 520,270 520,280 530,280 530,270 540,270 540,260 550,260 550,250 540,250 540,240 550,240 550,250 560,250 560,240 570,240 570,230 580,230 580,220 570,220 570,210 560,210 560,200 550,200 550,210 540,210 540,200 550,200 550,190 540,190 540,180 550,180 550,190 560,190 560,180 570,180 570,190 560,190 560,200 570,200 570,210 580,210 580,220 590,220 590,210 600,210 600,200 610,200 610,190 600,190 600,180 610,180 610,190 620,190 620,180 630,180 630,170 640,170 640,160 630,160 630,150 640,150 640,160 650,160 650,150 660,150 660,140 670,140 670,130 660,130 660,120 650,120 650,110 640,110 640,120 630,120 630,110 640,110 640,100 630,100 630,90 620,90 620,80 610,80 610,90 600,90 600,80 610,80 610,70 600,70 600,60 590,60 590,50 580,50 580,60 570,60 570,70 560,70 560,80 570,80 570,90 560,90 560,80 550,80 550,90 540,90 540,80 550,80 550,70 540,70 540,60 550,60 550,70 560,70 560,60 570,60 570,50 580,50 580,40 570,40 570,30 560,30 560,20 550,20 550,30 540,30 540,20 550,20 550,10 540,10 540,0 550,0 550,10 560,10 560,0 570,0 570,10 560,10 560,20 570,20 570,30 580,30 580,40 590,40 590,30 600,30 600,20 610,20 610,10 600,10 600,0 610,0 610,10 620,10 620,0 630,0 630,10 620,10 620,20 630,20 630,30 620,30 620,20 610,20 610,30 600,30 600,40 590,40 590,50 600,50 600,60 610,60 610,70 620,70 620,60 630,60 630,70 620,70 620,80 630,80 630,90 640,90 640,100 650,100 650,90 660,90 660,100 650,100 650,110 660,110 660,120 670,120 670,130 680,130 680,120 690,120 690,110 700,110 700,100 690,100 690,90 700,90 700,100 710,100 710,90 720,90 720,80 730,80 730,70 720,70 720,60 730,60 730,70 740,70 740,60 750,60 750,50 760,50 760,40 750,40 750,30 740,30 740,20 730,20 730,30 720,30 720,20 730,20 730,10 720,10 720,0 730,0 730,10 740,10 740,0 750,0 750,10 740,10 740,20 750,20 750,30 760,30 760,40 770,40 770,30 780,30 780,20 790,20 790,10 780,10 780,0 790,0 790,10 800,10 800,0 810,0 " style = "stroke-width: 1.000000; stroke: rgb(255,0,0); fill:none;" >
</polyline>
</svg>
