<?xml version="1.0" standalone="no"?>
<!DOCTYPE svg PUBLIC "-//W3C//DTD SVG 1.1//EN" "http://www.w3.org/Graphics/SVG/1.1/DTD/svg11.dtd">
<svg version = "1.1" viewBox = "-449.411 -1013.26 652.012 1013.26" xmlns = "http://www.w3.org/2000/svg" >
<polyline points = "0,0 4.28626e-15,-70 12.1554,-138.937 24.3107,-207.873 " style = "stroke-width: 1.000000; stroke: rgb(255,0,0); fill:none;" >
</polyline>
<polyline points = "0,0 4.28626e-15,-70 12.1554,-138.937 24.3107,-207.873 4.28626e-15,-70 -44.9951,-123.623 " style = "stroke-width: 1.000000; stroke: rgb(255,0,0); fill:none;" >
</polyline>
<polyline points = "0,0 4.28626e-15,-70 12.1554,-138.937 24.3107,-207.873 4.28626e-15,-70 -44.9951,-123.623 4.28626e-15,-70 8.57253e-15,-140 1.28588e-14,-210 12.1554,-278.937 24.3107,-347.873 36.4661,-416.81 60.4075,-482.588 84.3489,-548.367 " style = "stroke-width: 1.000000; stroke: rgb(255,0,0); fill:none;" >
</polyline>
<polyline points = "0,0 4.28626e-15,-70 12.1554,-138.937 24.3107,-207.873 4.28626e-15,-70 -44.9951,-123.623 4.28626e-15,-70 8.57253e-15,-140 1.28588e-14,-210 12.1554,-278.937 24.3107,-347.873 36.4661,-416.81 60.4075,-482.588 84.3489,-548.367 36.4661,-416.81 1.46612,-477.431 " style = "stroke-width: 1.000000; stroke: rgb(255,0,0); fill:none;" >
</polyline>
<polyline points = "0,0 4.28626e-15,-70 12.1554,-138.937 24.3107,-207.873 4.28626e-15,-70 -44.9951,-123.623 4.28626e-15,-70 8.57253e-15,-140 1.28588e-14,-210 12.1554,-278.937 24.3107,-347.873 36.4661,-416.81 60.4075,-482.588 84.3489,-548.367 36.4661,-416.81 1.46612,-477.431 36.4661,-416.81 48.6215,-485.746 " style = "stroke-width: 1.000000; stroke: rgb(255,0,0); fill:none;" >
</polyline>
<polyline points = "0,0 4.28626e-15,-70 12.1554,-138.937 24.3107,-207.873 4.28626e-15,-70 -44.9951,-123.623 4.28626e-15,-70 8.57253e-15,-140 1.28588e-14,-210 12.1554,-278.937 24.3107,-347.873 36.4661,-416.81 60.4075,-482.588 84.3489,-548.367 36.4661,-416.81 1.46612,-477.431 36.4661,-416.81 48.6215,-485.746 1.28588e-14,-210 -44.9951,-263.623 -89.9903,-317.246 -124.99,-377.868 -159.99,-438.49 " style = "stroke-width: 1.000000; stroke: rgb(255,0,0); fill:none;" >
</polyline>
<polyline points = "0,0 4.28626e-15,-70 12.1554,-138.937 24.3107,-207.873 4.28626e-15,-70 -44.9951,-123.623 4.28626e-15,-70 8.57253e-15,-140 1.28588e-14,-210 12.1554,-278.937 24.3107,-347.873 36.4661,-416.81 60.4075,-482.588 84.3489,-548.367 36.4661,-416.81 1.46612,-477.431 36.4661,-416.81 48.6215,-485.746 1.28588e-14,-210 -44.9951,-263.623 -89.9903,-317.246 -124.99,-377.868 -159.99,-438.49 -89.9903,-317.246 -158.927,-329.402 " style = "stroke-width: 1.000000; stroke: rgb(255,0,0); fill:none;" >
</polyline>
<polyline points = "0,0 4.28626e-15,-70 12.1554,-138.937 24.3107,-207.873 4.28626e-15,-70 -44.9951,-123.623 4.28626e-15,-70 8.57253e-15,-140 1.28588e-14,-210 12.1554,-278.937 24.3107,-347.873 36.4661,-416.81 60.4075,-482.588 84.3489,-548.367 36.4661,-416.81 1.46612,-477.431 36.4661,-416.81 48.6215,-485.746 1.28588e-14,-210 -44.9951,-263.623 -89.9903,-317.246 -124.99,-377.868 -159.99,-438.49 -89.9903,-317.246 -158.927,-329.402 -89.9903,-317.246 -134.985,-370.869 " style = "stroke-width: 1.000000; stroke: rgb(255,0,0); fill:none;" >
</polyline>
<polyline points = "0,0 4.28626e-15,-70 12.1554,-138.937 24.3107,-207.873 4.28626e-15,-70 -44.9951,-123.623 4.28626e-15,-70 8.57253e-15,-140 1.28588e-14,-210 12.1554,-278.937 24.3107,-347.873 36.4661,-416.81 60.4075,-482.588 84.3489,-548.367 36.4661,-416.81 1.46612,-477.431 36.4661,-416.81 48.6215,-485.746 1.28588e-14,-210 -44.9951,-263.623 -89.9903,-317.246 -124.99,-377.868 -159.99,-438.49 -89.9903,-317.246 -158.927,-329.402 -89.9903,-317.246 -134.985,-370.869 1.28588e-14,-210 1.71451e-14,-280 2.14313e-14,-350 12.1554,-418.937 24.3107,-487.873 36.4661,-556.81 60.4075,-622.588 84.3489,-688.367 " style = "stroke-width: 1.000000; stroke: rgb(255,0,0); fill:none;" >
</polyline>
<polyline points = "0,0 4.28626e-15,-70 12.1554,-138.937 24.3107,-207.873 4.28626e-15,-70 -44.9951,-123.623 4.28626e-15,-70 8.57253e-15,-140 1.28588e-14,-210 12.1554,-278.937 24.3107,-347.873 36.4661,-416.81 60.4075,-482.588 84.3489,-548.367 36.4661,-416.81 1.46612,-477.431 36.4661,-416.81 48.6215,-485.746 1.28588e-14,-210 -44.9951,-263.623 -89.9903,-317.246 -124.99,-377.868 -159.99,-438.49 -89.9903,-317.246 -158.927,-329.402 -89.9903,-317.246 -134.985,-370.869 1.28588e-14,-210 1.71451e-14,-280 2.14313e-14,-350 12.1554,-418.937 24.3107,-487.873 36.4661,-556.81 60.4075,-622.588 84.3489,-688.367 36.4661,-556.81 1.46612,-617.431 " style = "stroke-width: 1.000000; stroke: rgb(255,0,0); fill:none;" >
</polyline>
<polyline points = "0,0 4.28626e-15,-70 12.1554,-138.937 24.3107,-207.873 4.28626e-15,-70 -44.9951,-123.623 4.28626e-15,-70 8.57253e-15,-140 1.28588e-14,-210 12.1554,-278.937 24.3107,-347.873 36.4661,-416.81 60.4075,-482.588 84.3489,-548.367 36.4661,-416.81 1.46612,-477.431 36.4661,-416.81 48.6215,-485.746 1.28588e-14,-210 -44.9951,-263.623 -89.9903,-317.246 -124.99,-377.868 -159.99,-438.49 -89.9903,-317.246 -158.927,-329.402 -89.9903,-317.246 -134.985,-370.869 1.28588e-14,-210 1.71451e-14,-280 2.14313e-14,-350 12.1554,-418.937 24.3107,-487.873 36.4661,-556.81 60.4075,-622.588 84.3489,-688.367 36.4661,-556.81 1.46612,-617.431 36.4661,-556.81 48.6215,-625.746 60.7769,-694.683 84.7183,-760.461 108.66,-826.24 132.601,-892.018 167.601,-952.64 202.601,-1013.26 " style = "stroke-width: 1.000000; stroke: rgb(255,0,0); fill:none;" >
</polyline>
<polyline points = "0,0 4.28626e-15,-70 12.1554,-138.937 24.3107,-207.873 4.28626e-15,-70 -44.9951,-123.623 4.28626e-15,-70 8.57253e-15,-140 1.28588e-14,-210 12.1554,-278.937 24.3107,-347.873 36.4661,-416.81 60.4075,-482.588 84.3489,-548.367 36.4661,-416.81 1.46612,-477.431 36.4661,-416.81 48.6215,-485.746 1.28588e-14,-210 -44.9951,-263.623 -89.9903,-317.246 -124.99,-377.868 -159.99,-438.49 -89.9903,-317.246 -158.927,-329.402 -89.9903,-317.246 -134.985,-370.869 1.28588e-14,-210 1.71451e-14,-280 2.14313e-14,-350 12.1554,-418.937 24.3107,-487.873 36.4661,-556.81 60.4075,-622.588 84.3489,-688.367 36.4661,-556.81 1.46612,-617.431 36.4661,-556.81 48.6215,-625.746 60.7769,-694.683 84.7183,-760.461 108.66,-826.24 132.601,-892.018 167.601,-952.64 202.601,-1013.26 132.601,-892.018 108.66,-957.797 " style = "stroke-width: 1.000000; stroke: rgb(255,0,0); fill:none;" >
</polyline>
<polyline points = "0,0 4.28626e-15,-70 12.1554,-138.937 24.3107,-207.873 4.28626e-15,-70 -44.9951,-123.623 4.28626e-15,-70 8.57253e-15,-140 1.28588e-14,-210 12.1554,-278.937 24.3107,-347.873 36.4661,-416.81 60.4075,-482.588 84.3489,-548.367 36.4661,-416.81 1.46612,-477.431 36.4661,-416.81 48.6215,-485.746 1.28588e-14,-210 -44.9951,-263.623 -89.9903,-317.246 -124.99,-377.868 -159.99,-438.49 -89.9903,-317.246 -158.927,-329.402 -89.9903,-317.246 -134.985,-370.869 1.28588e-14,-210 1.71451e-14,-280 2.14313e-14,-350 12.1554,-418.937 24.3107,-487.873 36.4661,-556.81 60.4075,-622.588 84.3489,-688.367 36.4661,-556.81 1.46612,-617.431 36.4661,-556.81 48.6215,-625.746 60.7769,-694.683 84.7183,-760.461 108.66,-826.24 132.601,-892.018 167.601,-952.64 202.601,-1013.26 132.601,-892.018 108.66,-957.797 132.601,-892.018 156.542,-957.797 " style = "stroke-width: 1.000000; stroke: rgb(255,0,0); fill:none;" >
</polyline>
<polyline points = "0,0 4.28626e-15,-70 12.1554,-138.937 24.3107,-207.873 4.28626e-15,-70 -44.9951,-123.623 4.28626e-15,-70 8.57253e-15,-140 1.28588e-14,-210 12.1554,-278.937 24.3107,-347.873 36.4661,-416.81 60.4075,-482.588 84.3489,-548.367 36.4661,-416.81 1.46612,-477.431 36.4661,-416.81 48.6215,-485.746 1.28588e-14,-210 -44.9951,-263.623 -89.9903,-317.246 -124.99,-377.868 -159.99,-438.49 -89.9903,-317.246 -158.927,-329.402 -89.9903,-317.246 -134.985,-370.869 1.28588e-14,-210 1.71451e-14,-280 2.14313e-14,-350 12.1554,-418.937 24.3107,-487.873 36.4661,-556.81 60.4075,-622.588 84.3489,-688.367 36.4661,-556.81 1.46612,-617.431 36.4661,-556.81 48.6215,-625.746 60.7769,-694.683 84.7183,-760.461 108.66,-826.24 132.601,-892.018 167.601,-952.64 202.601,-1013.26 132.601,-892.018 108.66,-957.797 132.601,-892.018 156.542,-957.797 60.7769,-694.683 25.7769,-755.304 -9.22314,-815.926 -33.1645,-881.705 -57.106,-947.483 " style = "stroke-width: 1.000000; stroke: rgb(255,0,0); fill:none;" >
</polyline>
<polyline points = "0,0 4.28626e-15,-70 12.1554,-138.937 24.3107,-207.873 4.28626e-15,-70 -44.9951,-123.623 4.28626e-15,-70 8.57253e-15,-140 1.28588e-14,-210 12.1554,-278.937 24.3107,-347.873 36.4661,-416.81 60.4075,-482.588 84.3489,-548.367 36.4661,-416.81 1.46612,-477.431 36.4661,-416.81 48.6215,-485.746 1.28588e-14,-210 -44.9951,-263.623 -89.9903,-317.246 -124.99,-377.868 -159.99,-438.49 -89.9903,-317.246 -158.927,-329.402 -89.9903,-317.246 -134.985,-370.869 1.28588e-14,-210 1.71451e-14,-280 2.14313e-14,-350 12.1554,-418.937 24.3107,-487.873 36.4661,-556.81 60.4075,-622.588 84.3489,-688.367 36.4661,-556.81 1.46612,-617.431 36.4661,-556.81 48.6215,-625.746 60.7769,-694.683 84.7183,-760.461 108.66,-826.24 132.601,-892.018 167.601,-952.64 202.601,-1013.26 132.601,-892.018 108.66,-957.797 132.601,-892.018 156.542,-957.797 60.7769,-694.683 25.7769,-755.304 -9.22314,-815.926 -33.1645,-881.705 -57.106,-947.483 -9.22314,-815.926 -75.0016,-839.868 " style = "stroke-width: 1.000000; stroke: rgb(255,0,0); fill:none;" >
</polyline>
<polyline points = "0,0 4.28626e-15,-70 12.1554,-138.937 24.3107,-207.873 4.28626e-15,-70 -44.9951,-123.623 4.28626e-15,-70 8.57253e-15,-140 1.28588e-14,-210 12.1554,-278.937 24.3107,-347.873 36.4661,-416.81 60.4075,-482.588 84.3489,-548.367 36.4661,-416.81 1.46612,-477.431 36.4661,-416.81 48.6215,-485.746 1.28588e-14,-210 -44.9951,-263.623 -89.9903,-317.246 -124.99,-377.868 -159.99,-438.49 -89.9903,-317.246 -158.927,-329.402 -89.9903,-317.246 -134.985,-370.869 1.28588e-14,-210 1.71451e-14,-280 2.14313e-14,-350 12.1554,-418.937 24.3107,-487.873 36.4661,-556.81 60.4075,-622.588 84.3489,-688.367 36.4661,-556.81 1.46612,-617.431 36.4661,-556.81 48.6215,-625.746 60.7769,-694.683 84.7183,-760.461 108.66,-826.24 132.601,-892.018 167.601,-952.64 202.601,-1013.26 132.601,-892.018 108.66,-957.797 132.601,-892.018 156.542,-957.797 60.7769,-694.683 25.7769,-755.304 -9.22314,-815.926 -33.1645,-881.705 -57.106,-947.483 -9.22314,-815.926 -75.0016,-839.868 -9.22314,-815.926 -44.2231,-876.548 " style = "stroke-width: 1.000000; stroke: rgb(255,0,0); fill:none;" >
</polyline>
<polyline points = "0,0 4.28626e-15,-70 12.1554,-138.937 24.3107,-207.873 4.28626e-15,-70 -44.9951,-123.623 4.28626e-15,-70 8.57253e-15,-140 1.28588e-14,-210 12.1554,-278.937 24.3107,-347.873 36.4661,-416.81 60.4075,-482.588 84.3489,-548.367 36.4661,-416.81 1.46612,-477.431 36.4661,-416.81 48.6215,-485.746 1.28588e-14,-210 -44.9951,-263.623 -89.9903,-317.246 -124.99,-377.868 -159.99,-438.49 -89.9903,-317.246 -158.927,-329.402 -89.9903,-317.246 -134.985,-370.869 1.28588e-14,-210 1.71451e-14,-280 2.14313e-14,-350 12.1554,-418.937 24.3107,-487.873 36.4661,-556.81 60.4075,-622.588 84.3489,-688.367 36.4661,-556.81 1.46612,-617.431 36.4661,-556.81 48.6215,-625.746 60.7769,-694.683 84.7183,-760.461 108.66,-826.24 132.601,-892.018 167.601,-952.64 202.601,-1013.26 132.601,-892.018 108.66,-957.797 132.601,-892.018 156.542,-957.797 60.7769,-694.683 25.7769,-755.304 -9.22314,-815.926 -33.1645,-881.705 -57.106,-947.483 -9.22314,-815.926 -75.0016,-839.868 -9.22314,-815.926 -44.2231,-876.548 60.7769,-694.683 72.9322,-763.619 " style = "stroke-width: 1.000000; stroke: rgb(255,0,0); fill:none;" >
</polyline>
<polyline points = "0,0 4.28626e-15,-70 12.1554,-138.937 24.3107,-207.873 4.28626e-15,-70 -44.9951,-123.623 4.28626e-15,-70 8.57253e-15,-140 1.28588e-14,-210 12.1554,-278.937 24.3107,-347.873 36.4661,-416.81 60.4075,-482.588 84.3489,-548.367 36.4661,-416.81 1.46612,-477.431 36.4661,-416.81 48.6215,-485.746 1.28588e-14,-210 -44.9951,-263.623 -89.9903,-317.246 -124.99,-377.868 -159.99,-438.49 -89.9903,-317.246 -158.927,-329.402 -89.9903,-317.246 -134.985,-370.869 1.28588e-14,-210 1.71451e-14,-280 2.14313e-14,-350 12.1554,-418.937 24.3107,-487.873 36.4661,-556.81 60.4075,-622.588 84.3489,-688.367 36.4661,-556.81 1.46612,-617.431 36.4661,-556.81 48.6215,-625.746 60.7769,-694.683 84.7183,-760.461 108.66,-826.24 132.601,-892.018 167.601,-952.64 202.601,-1013.26 132.601,-892.018 108.66,-957.797 132.601,-892.018 156.542,-957.797 60.7769,-694.683 25.7769,-755.304 -9.22314,-815.926 -33.1645,-881.705 -57.106,-947.483 -9.22314,-815.926 -75.0016,-839.868 -9.22314,-815.926 -44.2231,-876.548 60.7769,-694.683 72.9322,-763.619 2.14313e-14,-350 -44.9951,-403.623 -89.9903,-457.246 -124.99,-517.868 -159.99,-578.49 " style = "stroke-width: 1.000000; stroke: rgb(255,0,0); fill:none;" >
</polyline>
<polyline points = "0,0 4.28626e-15,-70 12.1554,-138.937 24.3107,-207.873 4.28626e-15,-70 -44.9951,-123.623 4.28626e-15,-70 8.57253e-15,-140 1.28588e-14,-210 12.1554,-278.937 24.3107,-347.873 36.4661,-416.81 60.4075,-482.588 84.3489,-548.367 36.4661,-416.81 1.46612,-477.431 36.4661,-416.81 48.6215,-485.746 1.28588e-14,-210 -44.9951,-263.623 -89.9903,-317.246 -124.99,-377.868 -159.99,-438.49 -89.9903,-317.246 -158.927,-329.402 -89.9903,-317.246 -134.985,-370.869 1.28588e-14,-210 1.71451e-14,-280 2.14313e-14,-350 12.1554,-418.937 24.3107,-487.873 36.4661,-556.81 60.4075,-622.588 84.3489,-688.367 36.4661,-556.81 1.46612,-617.431 36.4661,-556.81 48.6215,-625.746 60.7769,-694.683 84.7183,-760.461 108.66,-826.24 132.601,-892.018 167.601,-952.64 202.601,-1013.26 132.601,-892.018 108.66,-957.797 132.601,-892.018 156.542,-957.797 60.7769,-694.683 25.7769,-755.304 -9.22314,-815.926 -33.1645,-881.705 -57.106,-947.483 -9.22314,-815.926 -75.0016,-839.868 -9.22314,-815.926 -44.2231,-876.548 60.7769,-694.683 72.9322,-763.619 2.14313e-14,-350 -44.9951,-403.623 -89.9903,-457.246 -124.99,-517.868 -159.99,-578.49 -89.9903,-457.246 -158.927,-469.402 " style = "stroke-width: 1.000000; stroke: rgb(255,0,0); fill:none;" >
</polyline>
<polyline points = "0,0 4.28626e-15,-70 12.1554,-138.937 24.3107,-207.873 4.28626e-15,-70 -44.9951,-123.623 4.28626e-15,-70 8.57253e-15,-140 1.28588e-14,-210 12.1554,-278.937 24.3107,-347.873 36.4661,-416.81 60.4075,-482.588 84.3489,-548.367 36.4661,-416.81 1.46612,-477.431 36.4661,-416.81 48.6215,-485.746 1.28588e-14,-210 -44.9951,-263.623 -89.9903,-317.246 -124.99,-377.868 -159.99,-438.49 -89.9903,-317.246 -158.927,-329.402 -89.9903,-317.246 -134.985,-370.869 1.28588e-14,-210 1.71451e-14,-280 2.14313e-14,-350 12.1554,-418.937 24.3107,-487.873 36.4661,-556.81 60.4075,-622.588 84.3489,-688.367 36.4661,-556.81 1.46612,-617.431 36.4661,-556.81 48.6215,-625.746 60.7769,-694.683 84.7183,-760.461 108.66,-826.24 132.601,-892.018 167.601,-952.64 202.601,-1013.26 132.601,-892.018 108.66,-957.797 132.601,-892.018 156.542,-957.797 60.7769,-694.683 25.7769,-755.304 -9.22314,-815.926 -33.1645,-881.705 -57.106,-947.483 -9.22314,-815.926 -75.0016,-839.868 -9.22314,-815.926 -44.2231,-876.548 60.7769,-694.683 72.9322,-763.619 2.14313e-14,-350 -44.9951,-403.623 -89.9903,-457.246 -124.99,-517.868 -159.99,-578.49 -89.9903,-457.246 -158.927,-469.402 -89.9903,-457.246 -134.985,-510.869 -179.981,-564.492 -214.981,-625.114 -249.981,-685.736 -284.981,-746.358 -308.922,-812.136 -332.863,-877.915 " style = "stroke-width: 1.000000; stroke: rgb(255,0,0); fill:none;" >
</polyline>
<polyline points = "0,0 4.28626e-15,-70 12.1554,-138.937 24.3107,-207.873 4.28626e-15,-70 -44.9951,-123.623 4.28626e-15,-70 8.57253e-15,-140 1.28588e-14,-210 12.1554,-278.937 24.3107,-347.873 36.4661,-416.81 60.4075,-482.588 84.3489,-548.367 36.4661,-416.81 1.46612,-477.431 36.4661,-416.81 48.6215,-485.746 1.28588e-14,-210 -44.9951,-263.623 -89.9903,-317.246 -124.99,-377.868 -159.99,-438.49 -89.9903,-317.246 -158.927,-329.402 -89.9903,-317.246 -134.985,-370.869 1.28588e-14,-210 1.71451e-14,-280 2.14313e-14,-350 12.1554,-418.937 24.3107,-487.873 36.4661,-556.81 60.4075,-622.588 84.3489,-688.367 36.4661,-556.81 1.46612,-617.431 36.4661,-556.81 48.6215,-625.746 60.7769,-694.683 84.7183,-760.461 108.66,-826.24 132.601,-892.018 167.601,-952.64 202.601,-1013.26 132.601,-892.018 108.66,-957.797 132.601,-892.018 156.542,-957.797 60.7769,-694.683 25.7769,-755.304 -9.22314,-815.926 -33.1645,-881.705 -57.106,-947.483 -9.22314,-815.926 -75.0016,-839.868 -9.22314,-815.926 -44.2231,-876.548 60.7769,-694.683 72.9322,-763.619 2.14313e-14,-350 -44.9951,-403.623 -89.9903,-457.246 -124.99,-517.868 -159.99,-578.49 -89.9903,-457.246 -158.927,-469.402 -89.9903,-457.246 -134.985,-510.869 -179.981,-564.492 -214.981,-625.114 -249.981,-685.736 -284.981,-746.358 -308.922,-812.136 -332.863,-877.915 -284.981,-746.358 -350.759,-770.299 " style = "stroke-width: 1.000000; stroke: rgb(255,0,0); fill:none;" >
</polyline>
<polyline points = "0,0 4.28626e-15,-70 12.1554,-138.937 24.3107,-207.873 4.28626e-15,-70 -44.9951,-123.623 4.28626e-15,-70 8.57253e-15,-140 1.28588e-14,-210 12.1554,-278.937 24.3107,-347.873 36.4661,-416.81 60.4075,-482.588 84.3489,-548.367 36.4661,-416.81 1.46612,-477.431 36.4661,-416.81 48.6215,-485.746 1.28588e-14,-210 -44.9951,-263.623 -89.9903,-317.246 -124.99,-377.868 -159.99,-438.49 -89.9903,-317.246 -158.927,-329.402 -89.9903,-317.246 -134.985,-370.869 1.28588e-14,-210 1.71451e-14,-280 2.14313e-14,-350 12.1554,-418.937 24.3107,-487.873 36.4661,-556.81 60.4075,-622.588 84.3489,-688.367 36.4661,-556.81 1.46612,-617.431 36.4661,-556.81 48.6215,-625.746 60.7769,-694.683 84.7183,-760.461 108.66,-826.24 132.601,-892.018 167.601,-952.64 202.601,-1013.26 132.601,-892.018 108.66,-957.797 132.601,-892.018 156.542,-957.797 60.7769,-694.683 25.7769,-755.304 -9.22314,-815.926 -33.1645,-881.705 -57.106,-947.483 -9.22314,-815.926 -75.0016,-839.868 -9.22314,-815.926 -44.2231,-876.548 60.7769,-694.683 72.9322,-763.619 2.14313e-14,-350 -44.9951,-403.623 -89.9903,-457.246 -124.99,-517.868 -159.99,-578.49 -89.9903,-457.246 -158.927,-469.402 -89.9903,-457.246 -134.985,-510.869 -179.981,-564.492 -214.981,-625.114 -249.981,-685.736 -284.981,-746.358 -308.922,-812.136 -332.863,-877.915 -284.981,-746.358 -350.759,-770.299 -284.981,-746.358 -319.981,-806.979 " style = "stroke-width: 1.000000; stroke: rgb(255,0,0); fill:none;" >
</polyline>
<polyline points = "0,0 4.28626e-15,-70 12.1554,-138.937 24.3107,-207.873 4.28626e-15,-70 -44.9951,-123.623 4.28626e-15,-70 8.57253e-15,-140 1.28588e-14,-210 12.1554,-278.937 24.3107,-347.873 36.4661,-416.81 60.4075,-482.588 84.3489,-548.367 36.4661,-416.81 1.46612,-477.431 36.4661,-416.81 48.6215,-485.746 1.28588e-14,-210 -44.9951,-263.623 -89.9903,-317.246 -124.99,-377.868 -159.99,-438.49 -89.9903,-317.246 -158.927,-329.402 -89.9903,-317.246 -134.985,-370.869 1.28588e-14,-210 1.71451e-14,-280 2.14313e-14,-350 12.1554,-418.937 24.3107,-487.873 36.4661,-556.81 60.4075,-622.588 84.3489,-688.367 36.4661,-556.81 1.46612,-617.431 36.4661,-556.81 48.6215,-625.746 60.7769,-694.683 84.7183,-760.461 108.66,-826.24 132.601,-892.018 167.601,-952.64 202.601,-1013.26 132.601,-892.018 108.66,-957.797 132.601,-892.018 156.542,-957.797 60.7769,-694.683 25.7769,-755.304 -9.22314,-815.926 -33.1645,-881.705 -57.106,-947.483 -9.22314,-815.926 -75.0016,-839.868 -9.22314,-815.926 -44.2231,-876.548 60.7769,-694.683 72.9322,-763.619 2.14313e-14,-350 -44.9951,-403.623 -89.9903,-457.246 -124.99,-517.868 -159.99,-578.49 -89.9903,-457.246 -158.927,-469.402 -89.9903,-457.246 -134.985,-510.869 -179.981,-564.492 -214.981,-625.114 -249.981,-685.736 -284.981,-746.358 -308.922,-812.136 -332.863,-877.915 -284.981,-746.358 -350.759,-770.299 -284.981,-746.358 -319.981,-806.979 -179.981,-564.492 -248.917,-576.648 -317.854,-588.803 -383.632,-612.745 -449.411,-636.686 " style = "stroke-width: 1.000000; stroke: rgb(255,0,0); fill:none;" >
</polyline>
<polyline points = "0,0 4.28626e-15,-70 12.1554,-138.937 24.3107,-207.873 4.28626e-15,-70 -44.9951,-123.623 4.28626e-15,-70 8.57253e-15,-140 1.28588e-14,-210 12.1554,-278.937 24.3107,-347.873 36.4661,-416.81 60.4075,-482.588 84.3489,-548.367 36.4661,-416.81 1.46612,-477.431 36.4661,-416.81 48.6215,-485.746 1.28588e-14,-210 -44.9951,-263.623 -89.9903,-317.246 -124.99,-377.868 -159.99,-438.49 -89.9903,-317.246 -158.927,-329.402 -89.9903,-317.246 -134.985,-370.869 1.28588e-14,-210 1.71451e-14,-280 2.14313e-14,-350 12.1554,-418.937 24.3107,-487.873 36.4661,-556.81 60.4075,-622.588 84.3489,-688.367 36.4661,-556.81 1.46612,-617.431 36.4661,-556.81 48.6215,-625.746 60.7769,-694.683 84.7183,-760.461 108.66,-826.24 132.601,-892.018 167.601,-952.64 202.601,-1013.26 132.601,-892.018 108.66,-957.797 132.601,-892.018 156.542,-957.797 60.7769,-694.683 25.7769,-755.304 -9.22314,-815.926 -33.1645,-881.705 -57.106,-947.483 -9.22314,-815.926 -75.0016,-839.868 -9.22314,-815.926 -44.2231,-876.548 60.7769,-694.683 72.9322,-763.619 2.14313e-14,-350 -44.9951,-403.623 -89.9903,-457.246 -124.99,-517.868 -159.99,-578.49 -89.9903,-457.246 -158.927,-469.402 -89.9903,-457.246 -134.985,-510.869 -179.981,-564.492 -214.981,-625.114 -249.981,-685.736 -284.981,-746.358 -308.922,-812.136 -332.863,-877.915 -284.981,-746.358 -350.759,-770.299 -284.981,-746.358 -319.981,-806.979 -179.981,-564.492 -248.917,-576.648 -317.854,-588.803 -383.632,-612.745 -449.411,-636.686 -317.854,-588.803 -378.475,-553.803 " style = "stroke-width: 1.000000; stroke: rgb(255,0,0); fill:none;" >
</polyline>
<polyline points = "0,0 4.28626e-15,-70 12.1554,-138.937 24.3107,-207.873 4.28626e-15,-70 -44.9951,-123.623 4.28626e-15,-70 8.57253e-15,-140 1.28588e-14,-210 12.1554,-278.937 24.3107,-347.873 36.4661,-416.81 60.4075,-482.588 84.3489,-548.367 36.4661,-416.81 1.46612,-477.431 36.4661,-416.81 48.6215,-485.746 1.28588e-14,-210 -44.9951,-263.623 -89.9903,-317.246 -124.99,-377.868 -159.99,-438.49 -89.9903,-317.246 -158.927,-329.402 -89.9903,-317.246 -134.985,-370.869 1.28588e-14,-210 1.71451e-14,-280 2.14313e-14,-350 12.1554,-418.937 24.3107,-487.873 36.4661,-556.81 60.4075,-622.588 84.3489,-688.367 36.4661,-556.81 1.46612,-617.431 36.4661,-556.81 48.6215,-625.746 60.7769,-694.683 84.7183,-760.461 108.66,-826.24 132.601,-892.018 167.601,-952.64 202.601,-1013.26 132.601,-892.018 108.66,-957.797 132.601,-892.018 156.542,-957.797 60.7769,-694.683 25.7769,-755.304 -9.22314,-815.926 -33.1645,-881.705 -57.106,-947.483 -9.22314,-815.926 -75.0016,-839.868 -9.22314,-815.926 -44.2231,-876.548 60.7769,-694.683 72.9322,-763.619 2.14313e-14,-350 -44.9951,-403.623 -89.9903,-457.246 -124.99,-517.868 -159.99,-578.49 -89.9903,-457.246 -158.927,-469.402 -89.9903,-457.246 -134.985,-510.869 -179.981,-564.492 -214.981,-625.114 -249.981,-685.736 -284.981,-746.358 -308.922,-812.136 -332.863,-877.915 -284.981,-746.358 -350.759,-770.299 -284.981,-746.358 -319.981,-806.979 -179.981,-564.492 -248.917,-576.648 -317.854,-588.803 -383.632,-612.745 -449.411,-636.686 -317.854,-588.803 -378.475,-553.803 -317.854,-588.803 -386.79,-600.959 " style = "stroke-width: 1.000000; stroke: rgb(255,0,0); fill:none;" >
</polyline>
<polyline points = "0,0 4.28626e-15,-70 12.1554,-138.937 24.3107,-207.873 4.28626e-15,-70 -44.9951,-123.623 4.28626e-15,-70 8.57253e-15,-140 1.28588e-14,-210 12.1554,-278.937 24.3107,-347.873 36.4661,-416.81 60.4075,-482.588 84.3489,-548.367 36.4661,-416.81 1.46612,-477.431 36.4661,-416.81 48.6215,-485.746 1.28588e-14,-210 -44.9951,-263.623 -89.9903,-317.246 -124.99,-377.868 -159.99,-438.49 -89.9903,-317.246 -158.927,-329.402 -89.9903,-317.246 -134.985,-370.869 1.28588e-14,-210 1.71451e-14,-280 2.14313e-14,-350 12.1554,-418.937 24.3107,-487.873 36.4661,-556.81 60.4075,-622.588 84.3489,-688.367 36.4661,-556.81 1.46612,-617.431 36.4661,-556.81 48.6215,-625.746 60.7769,-694.683 84.7183,-760.461 108.66,-826.24 132.601,-892.018 167.601,-952.64 202.601,-1013.26 132.601,-892.018 108.66,-957.797 132.601,-892.018 156.542,-957.797 60.7769,-694.683 25.7769,-755.304 -9.22314,-815.926 -33.1645,-881.705 -57.106,-947.483 -9.22314,-815.926 -75.0016,-839.868 -9.22314,-815.926 -44.2231,-876.548 60.7769,-694.683 72.9322,-763.619 2.14313e-14,-350 -44.9951,-403.623 -89.9903,-457.246 -124.99,-517.868 -159.99,-578.49 -89.9903,-457.246 -158.927,-469.402 -89.9903,-457.246 -134.985,-510.869 -179.981,-564.492 -214.981,-625.114 -249.981,-685.736 -284.981,-746.358 -308.922,-812.136 -332.863,-877.915 -284.981,-746.358 -350.759,-770.299 -284.981,-746.358 -319.981,-806.979 -179.981,-564.492 -248.917,-576.648 -317.854,-588.803 -383.632,-612.745 -449.411,-636.686 -317.854,-588.803 -378.475,-553.803 -317.854,-588.803 -386.79,-600.959 -179.981,-564.492 -224.976,-618.116 " style = "stroke-width: 1.000000; stroke: rgb(255,0,0); fill:none;" >
</polyline>
<polyline points = "0,0 4.28626e-15,-70 12.1554,-138.937 24.3107,-207.873 4.28626e-15,-70 -44.9951,-123.623 4.28626e-15,-70 8.57253e-15,-140 1.28588e-14,-210 12.1554,-278.937 24.3107,-347.873 36.4661,-416.81 60.4075,-482.588 84.3489,-548.367 36.4661,-416.81 1.46612,-477.431 36.4661,-416.81 48.6215,-485.746 1.28588e-14,-210 -44.9951,-263.623 -89.9903,-317.246 -124.99,-377.868 -159.99,-438.49 -89.9903,-317.246 -158.927,-329.402 -89.9903,-317.246 -134.985,-370.869 1.28588e-14,-210 1.71451e-14,-280 2.14313e-14,-350 12.1554,-418.937 24.3107,-487.873 36.4661,-556.81 60.4075,-622.588 84.3489,-688.367 36.4661,-556.81 1.46612,-617.431 36.4661,-556.81 48.6215,-625.746 60.7769,-694.683 84.7183,-760.461 108.66,-826.24 132.601,-892.018 167.601,-952.64 202.601,-1013.26 132.601,-892.018 108.66,-957.797 132.601,-892.018 156.542,-957.797 60.7769,-694.683 25.7769,-755.304 -9.22314,-815.926 -33.1645,-881.705 -57.106,-947.483 -9.22314,-815.926 -75.0016,-839.868 -9.22314,-815.926 -44.2231,-876.548 60.7769,-694.683 72.9322,-763.619 2.14313e-14,-350 -44.9951,-403.623 -89.9903,-457.246 -124.99,-517.868 -159.99,-578.49 -89.9903,-457.246 -158.927,-469.402 -89.9903,-457.246 -134.985,-510.869 -179.981,-564.492 -214.981,-625.114 -249.981,-685.736 -284.981,-746.358 -308.922,-812.136 -332.863,-877.915 -284.981,-746.358 -350.759,-770.299 -284.981,-746.358 -319.981,-806.979 -179.981,-564.492 -248.917,-576.648 -317.854,-588.803 -383.632,-612.745 -449.411,-636.686 -317.854,-588.803 -378.475,-553.803 -317.854,-588.803 -386.79,-600.959 -179.981,-564.492 -224.976,-618.116 2.14313e-14,-350 2.57176e-14,-420 " style = "stroke-width: 1.000000; stroke: rgb(255,0,0); fill:none;" >
</polyline>
</svg>
